<?xml version="1.0" encoding="UTF-8" standalone="no"?>
<!-- Created with Inkscape (http://www.inkscape.org/) -->

<svg
   width="210mm"
   height="297mm"
   viewBox="0 0 210 297"
   version="1.1"
   id="svg1"
   sodipodi:docname="logo.svg"
   inkscape:version="1.3.2 (091e20e, 2023-11-25, custom)"
   xmlns:inkscape="http://www.inkscape.org/namespaces/inkscape"
   xmlns:sodipodi="http://sodipodi.sourceforge.net/DTD/sodipodi-0.dtd"
   xmlns="http://www.w3.org/2000/svg"
   xmlns:svg="http://www.w3.org/2000/svg">
  <sodipodi:namedview
     id="namedview1"
     pagecolor="#ffffff"
     bordercolor="#000000"
     borderopacity="0.25"
     inkscape:showpageshadow="2"
     inkscape:pageopacity="0.0"
     inkscape:pagecheckerboard="0"
     inkscape:deskcolor="#d1d1d1"
     inkscape:document-units="mm"
     inkscape:zoom="0.70710678"
     inkscape:cx="280.01428"
     inkscape:cy="594.6768"
     inkscape:window-width="1920"
     inkscape:window-height="1051"
     inkscape:window-x="1341"
     inkscape:window-y="1032"
     inkscape:window-maximized="1"
     inkscape:current-layer="svg1" />
  <defs
     id="defs1">
    <inkscape:path-effect
       effect="fill_between_many"
       method="originald"
       linkedpaths="#path48,0,1|"
       id="path-effect49" />
  </defs>
  <path
     id="path49"
     d="m 191.96422,47.500387 c -0.15184,-0.02045 -0.27331,0.0043 -0.3762,0.07231 -0.10303,0.0684 -0.18725,0.180628 -0.26554,0.334989 -0.0901,0.177799 -0.35922,0.49812 -0.74451,0.903369 -0.38532,0.405242 -0.88713,0.89504 -1.44274,1.411604 -1.11118,1.033128 -2.43783,2.173175 -3.48087,2.954915 -2.07357,1.554083 -4.23214,2.695787 -7.18609,3.657147 -1.47697,0.480677 -3.15318,0.916397 -5.11677,1.335725 -1.96362,0.419328 -4.2145,0.822514 -6.84244,1.23837 -2.68834,0.425465 -6.37303,0.948792 -9.68078,1.387985 -3.30774,0.439197 -6.23858,0.794258 -7.42052,0.88261 -1.89536,0.141708 -3.39735,0.35894 -4.75502,0.718684 -0.67884,0.179866 -1.32167,0.395228 -1.95929,0.654265 -0.63765,0.259043 -1.27034,0.562318 -1.92894,0.916973 -0.67271,0.362385 -1.18252,0.63935 -1.76323,1.070873 -0.58072,0.431523 -1.23219,1.017273 -2.18868,1.997148 -1.91299,1.959736 -5.04548,5.495703 -11.26822,12.524055 -1.80645,2.040265 -3.16126,3.570002 -4.28547,4.908398 -1.12418,1.338398 -2.01807,2.484918 -2.90352,3.760214 -0.88543,1.275305 -1.76197,2.678767 -2.85213,4.529742 -1.09018,1.850982 -2.39369,4.150071 -4.13209,7.215497 -1.90738,3.36357 -3.05495,5.45668 -3.72542,6.88122 -0.33525,0.71229 -0.55153,1.25704 -0.68376,1.71012 -0.13224,0.45307 -0.18013,0.81465 -0.18013,1.15892 0,2.29397 1.92186,3.15792 4.25506,1.91196 0.34782,-0.18577 0.72466,-0.46509 1.16128,-0.87473 0.43658,-0.40966 0.93294,-0.95005 1.51939,-1.65715 1.17292,-1.41422 2.70666,-3.4965 4.84546,-6.54192 1.04707,-1.49108 2.05628,-2.859889 3.0475,-4.128881 0.99126,-1.268983 1.96433,-2.43869 2.93971,-3.530437 0.97538,-1.091732 1.95322,-2.105815 2.95271,-3.065147 0.99948,-0.959339 2.02085,-1.863393 3.08441,-2.73517 1.97881,-1.621991 3.47397,-2.742255 4.85124,-3.582686 0.68864,-0.420231 1.3479,-0.770504 2.02299,-1.078758 0.67508,-0.308241 1.36646,-0.574165 2.11921,-0.826053 1.01715,-0.34036 1.69681,-0.532969 2.53234,-0.642092 0.83555,-0.109126 1.82697,-0.134812 3.46569,-0.141034 1.40075,-0.0048 2.42553,0.02176 3.25516,0.09738 0.82967,0.07573 1.46422,0.200728 2.08377,0.390838 1.95661,0.600485 4.62456,2.046733 5.98359,3.243397 0.27315,0.240514 0.49542,0.417833 0.69239,0.527551 0.197,0.109771 0.36869,0.151802 0.54121,0.121673 0.17252,-0.02993 0.34578,-0.132485 0.54554,-0.311396 0.19976,-0.178865 0.42604,-0.434204 0.70471,-0.770934 0.56733,-0.685518 0.98269,-1.281285 1.43042,-2.141039 0.44775,-0.85974 0.92787,-1.983457 1.62506,-3.725851 0.74361,-1.858375 1.51742,-3.663763 1.71908,-4.012201 0.10258,-0.177255 0.24873,-0.320053 0.41388,-0.424479 0.1651,-0.104394 0.34884,-0.170772 0.5267,-0.195442 0.17786,-0.02473 0.34971,-0.0076 0.49057,0.05438 0.14087,0.06204 0.25119,0.169358 0.30531,0.324974 0.0432,0.124262 -0.0629,0.704956 -0.25973,1.534723 -0.59041,2.489318 -1.99533,7.219427 -2.61992,8.585581 -0.21131,0.462243 -0.45039,0.901579 -0.75536,1.362929 -0.91484,1.384066 -2.4252,2.965778 -5.5791,5.954228 -3.26469,3.093851 -7.53927,7.672526 -10.24299,10.896986 -0.90125,1.0748 -1.62786,1.99912 -2.08448,2.66787 -0.74021,1.08374 -1.88658,3.162 -2.54829,4.61778 -0.54353,1.1959 -0.84429,1.90434 -1.00931,2.53473 -0.165,0.63039 -0.1943,1.18275 -0.19461,2.06517 -3.3e-4,0.87027 0.0167,1.37362 0.10423,1.72298 0.0878,0.34932 0.24632,0.54472 0.52892,0.79741 0.2388,0.21373 0.45742,0.34586 0.70834,0.41159 0.25084,0.0658 0.53408,0.0651 0.90151,0.0102 0.47324,-0.0702 0.92888,-0.20817 1.46586,-0.49748 0.53699,-0.28924 1.15525,-0.73017 1.95427,-1.40659 0.79899,-0.67642 1.77878,-1.58825 3.03807,-2.81962 1.25927,-1.23137 2.79816,-2.78172 4.71597,-4.73589 1.98741,-2.02525 3.69491,-3.68918 5.25064,-5.07663 4.66712,-4.16235 7.96842,-5.839094 13.36499,-7.339334 2.17488,-0.604613 4.27248,-1.273417 6.14131,-1.951339 1.86885,-0.677928 3.50897,-1.36499 4.76878,-2.006451 1.16819,-0.594832 2.35356,-1.304527 3.57423,-2.143187 1.22068,-0.838643 2.47692,-1.806431 3.78477,-2.918399 1.30786,-1.111983 2.66761,-2.368307 4.09733,-3.78313 1.42974,-1.414836 2.92924,-2.98798 4.51557,-4.73518 2.99989,-3.304347 6.87966,-8.14046 8.89864,-10.996484 0.673,-0.952003 1.13929,-1.683901 1.2973,-2.065862 0.0987,-0.239016 0.12978,-0.451234 0.0789,-0.708664 -0.0507,-0.257427 -0.1836,-0.560083 -0.41242,-0.979968 -0.23669,-0.434012 -0.60766,-0.986049 -1.08242,-1.623485 -0.47472,-0.637342 -1.05334,-1.360266 -1.70608,-2.13807 -1.30544,-1.555614 -2.90643,-3.329268 -4.56328,-5.068031 -1.65687,-1.738768 -3.36924,-3.442958 -4.89683,-4.860444 -1.52762,-1.417488 -2.87069,-2.547825 -3.78841,-3.139599 -0.64787,-0.417737 -1.07455,-0.639552 -1.37831,-0.680748 z m -172.015138,1.705094 -3.10321,2.819629 c -1.706527,1.550695 -3.884521,3.533965 -4.840405,4.407322 -0.955911,0.873371 -2.0475152,1.84214 -2.4252652,2.153199 C 9.202453,58.896715 8.5485107,59.508209 8.1273571,59.943552 6.9280226,61.183 6.637151,61.439221 6.0182729,61.795387 c -0.2253849,0.129765 -0.8035713,0.659047 -1.3182666,1.12456 -0.1898007,0.23123 -0.4958793,0.44416 -0.7980513,0.655689 -0.1695976,0.243319 -0.38226,0.49077 -0.6461111,0.738731 -0.1383304,0.129918 -0.275499,0.258952 -0.4160282,0.386547 -0.1749305,0.139729 -0.1048736,0.08518 -0.2069319,0.16603 -0.2154357,0.171055 -0.427789,0.312294 -0.6352575,0.42878 -0.088208,0.254007 -0.3952154,0.713119 -0.8892155,1.205443 -0.56154295,0.559639 -1.02089871,1.185051 -1.02089871,1.390132 0,1.2 7.97216821,10.544929 14.09504791,16.521215 7.727129,7.542126 11.678265,9.846836 22.317947,13.016534 8.349683,2.487689 10.154607,3.800382 23.952393,17.420982 2.705126,2.67045 4.295095,3.97888 5.107382,4.20546 2.460962,0.68654 3.715417,-0.63287 3.365849,-3.54043 -0.215181,-1.78968 -2.522875,-6.51748 -4.503957,-9.22696 -2.05742,-2.81362 -7.256772,-8.422957 -12.518484,-13.505457 -3.98687,-3.851073 -4.943926,-5.008303 -5.935822,-7.177563 -0.806884,-1.76495 -2.818439,-9.083205 -2.638707,-9.599909 0.07406,-0.212738 0.432647,-0.385835 0.796601,-0.385835 0.591565,0 0.797873,0.321511 1.945567,3.027221 0.706188,1.664805 1.61837,3.802743 2.0266,4.750928 0.425006,0.987043 1.233423,2.222962 1.891307,2.891916 l 1.148961,1.167519 1.324785,-1.154619 c 2.696484,-2.351358 5.300367,-3.295815 9.777753,-3.546191 5.689908,-0.318183 10.299554,1.508795 16.287342,6.453149 4.182097,3.453037 8.177,7.937005 13.102367,14.708011 4.482108,6.16137 5.666406,7.4992 7.105034,8.02295 1.133619,0.41272 2.562672,0.21222 3.228372,-0.45238 0.62197,-0.62122 0.6237,-2.40761 0.001,-3.90985 -0.7123,-1.7235 -4.583283,-8.663625 -8.324456,-14.92419 C 90.369798,87.18067 90.09576,86.816454 83.920528,79.701679 73.297327,67.461917 71.406917,65.4586 69.387745,64.302897 66.376599,62.579419 64.165466,62.027137 57.799722,61.408828 52.761175,60.919436 41.175847,59.239878 37.226204,58.425988 33.054983,57.566426 29.816638,56.544437 27.526591,55.364414 25.488296,54.31415 22.049041,51.645658 20.675504,50.049436 Z m 41.886475,37.199198 v 7.22e-4 c -0.269063,0.0074 -0.602053,0.07536 -1.107714,0.191135 -0.782102,0.179105 -1.423185,0.388343 -1.423185,0.465274 0,0.07688 0.534471,0.860136 1.187311,1.740177 1.407814,1.897799 2.031146,3.367863 3.255154,7.676491 1.053388,3.707982 1.607564,4.830202 2.766769,5.609912 0.457544,0.30773 1.15618,0.55993 1.553416,0.56049 l 0.722082,7.1e-4 -0.17149,-1.90123 c -0.26649,-2.939223 -1.068454,-6.733068 -1.790015,-8.471767 -0.87459,-2.107404 -2.470571,-4.39518 -3.686379,-5.282773 -0.470178,-0.343266 -0.736825,-0.520284 -1.054176,-0.57266 -0.0794,-0.01262 -0.162145,-0.01827 -0.251814,-0.01653 z m 85.591913,0.195442 c -1.09501,0 -1.27915,0.111922 -2.52222,1.527561 -1.56957,1.787631 -2.63412,3.977541 -3.36295,6.919884 -0.53542,2.16154 -1.06865,5.595194 -1.06865,6.882634 0,0.59842 0.11958,0.71958 0.70254,0.71869 0.96669,-9.5e-4 2.17996,-0.87689 2.83406,-2.04439 0.301,-0.53728 0.9014,-2.291739 1.33419,-3.899819 0.88808,-3.299872 2.37401,-6.654948 3.71096,-8.377984 l 0.90082,-1.16108 -0.67363,-0.28277 c -0.3706,-0.15548 -1.20539,-0.282738 -1.85512,-0.282738 z m -4.60671,0.197553 -1.10989,0.169684 c -1.97586,0.301121 -3.839,1.127597 -6.12611,2.719417 -3.82023,2.658928 -5.72913,5.04268 -7.27217,9.078792 -1.27212,3.327433 -5.19265,16.392823 -5.19421,17.312183 -9.6e-4,0.41182 1.66541,-0.17439 3.18208,-1.11955 1.48245,-0.92353 1.9609,-1.91575 3.16976,-6.56982 1.30556,-5.02588 2.23135,-7.65536 3.61694,-10.272783 1.32289,-2.498712 3.72112,-5.327463 5.56464,-6.565544 0.88215,-0.592037 1.96826,-1.699479 2.80439,-2.858987 z m -75.665826,0.08445 c -0.845087,0 1.742133,3.279771 3.791296,4.806049 2.025161,1.508431 3.402878,3.114119 5.129087,5.978562 1.530204,2.538915 2.351888,4.757645 3.739915,10.093815 1.615571,6.21126 1.722036,6.39509 4.515537,7.82038 1.93347,0.98649 2.030946,1.00673 2.030946,0.42091 0,-2.68594 -4.963929,-17.465984 -6.89016,-20.51479 -0.79386,-1.256668 -2.616228,-3.236845 -4.234081,-4.601311 -2.228404,-1.879371 -6.516958,-4.003608 -8.08254,-4.003615 z m -10.801539,1.125991 c -0.526504,0 -1.728265,0.702526 -2.141652,1.25199 -0.289555,0.384877 0.0039,0.817782 2.187954,3.221911 1.387438,1.527491 2.924465,3.046759 3.415776,3.375823 0.870598,0.583091 0.895077,0.585242 0.972422,0.05371 0.203188,-1.39523 -3.448341,-7.903416 -4.4345,-7.903416 z m 96.456395,0.063 v 7.23e-4 c -0.32517,0.02176 -0.61602,0.369378 -1.42172,1.359337 -1.2513,1.537483 -2.78395,4.677918 -3.11841,6.390166 -0.11074,0.566657 -0.0792,0.916257 0.0839,0.916257 0.46384,0 3.1857,-2.66891 4.98871,-4.891218 1.67735,-2.067461 1.73284,-2.181765 1.31466,-2.691507 -0.24016,-0.292784 -0.79273,-0.694913 -1.22856,-0.894066 -0.19501,-0.08904 -0.34375,-0.154892 -0.47535,-0.179649 -0.0494,-0.0097 -0.0968,-0.01284 -0.1433,-0.01 z m -13.97856,6.773837 c -0.20878,0.06816 -2.16078,2.73427 -3.14878,4.310706 -1.61036,2.569152 -3.8868,9.005242 -3.8868,10.987882 0,0.85347 0.35074,0.84435 1.9709,-0.0452 2.58308,-1.41996 3.67879,-3.94577 4.55533,-10.503283 0.34129,-2.553208 0.5775,-4.690496 0.52454,-4.748785 -0.002,-0.0028 -0.007,-0.0028 -0.0144,-0.0014 z m -68.417522,0.102379 c -0.08243,0.01567 -0.105824,0.135509 -0.05496,0.382252 0.07983,0.387162 0.269428,1.780608 0.421818,3.096644 0.823789,7.116573 2.064655,10.236533 4.632027,11.647903 1.578861,0.86793 2.270604,0.94381 2.269709,0.24913 -0.0013,-0.97009 -1.273307,-5.70779 -2.020099,-7.52476 -1.195961,-2.909707 -4.670941,-7.957007 -5.248476,-7.851163 z m 14.045849,4.954204 c -0.01574,-0.0059 -0.02679,-0.0048 -0.03402,0.0037 -0.05514,0.06085 0.412398,1.517355 1.03899,3.236965 0.626574,1.71958 1.669144,5.06776 2.316733,7.44099 1.976578,7.24297 2.389219,8.1295 4.02571,8.65214 1.305074,0.41681 1.687119,0.35025 2.379678,-0.41373 0.529495,-0.58413 0.624917,-0.89384 0.496343,-1.61849 -0.226051,-1.27405 -1.966695,-5.19495 -3.364401,-7.57841 -1.871825,-3.19207 -6.373264,-9.55599 -6.859046,-9.723046 z m 35.052773,33.028835 c -4.40432,0.10651 -8.59041,1.23251 -11.31237,3.2298 -1.05882,0.77695 -2.19102,1.72556 -2.51499,2.10808 -0.32391,0.38258 -0.83965,0.6958 -1.14679,0.6958 -0.30718,0 -1.14597,-0.55843 -1.86381,-1.24051 -3.724095,-3.5388 -9.928908,-5.26853 -16.77499,-4.67647 -5.430808,0.46966 -10.20544,2.69082 -12.597344,5.86042 -0.998041,1.32254 -1.230678,1.96755 -1.376152,3.81248 -0.280799,3.56116 0.969286,5.988 4.935186,9.57701 4.728049,4.27871 15.071339,10.63021 24.93711,15.31434 2.72669,1.29454 2.53277,1.32606 7.57318,-1.24912 12.62962,-6.45344 19.88906,-11.21544 24.37419,-15.98936 2.06407,-2.19712 2.58833,-3.10083 3.11623,-5.3744 1.04607,-4.50474 -3.07742,-9.3566 -9.45578,-11.12675 -2.53042,-0.70205 -5.25109,-1.005 -7.89367,-0.94132 z m -59.908848,33.43613 -0.785753,0.53183 c -0.431741,0.29232 -3.449275,2.86966 -6.707105,5.72804 -3.257835,2.85834 -8.56594,7.4832 -11.794235,10.27636 -10.081856,8.72351 -20.165292,17.57644 -20.632119,18.11463 -1.038184,1.1969 -0.0381,3.03542 1.784219,3.28064 0.58123,0.0781 1.230694,0.17708 1.443441,0.219 0.548126,0.10833 1.790395,-0.11139 2.77907,-0.49178 0.4644,-0.1786 2.901357,-2.12476 5.415606,-4.32356 10.208218,-8.9285 24.636961,-21.61547 29.650898,-26.07099 l 3.390455,-3.01222 H 79.79642 c 8.606661,0 15.649196,-0.0538 15.649196,-0.11877 0,-0.0657 -1.240137,-1.02209 -2.754478,-2.126 l -2.753027,-2.00721 H 74.770797 Z m 59.671518,0 -2.8167,1.83105 c -1.54871,1.00693 -2.81847,1.9636 -2.82321,2.12602 -0.007,0.23136 3.298,0.29489 15.25342,0.29489 h 15.26065 l 3.82313,3.36653 c 2.10244,1.85142 8.76399,7.72495 14.80411,13.05162 6.0397,5.32687 12.61068,11.12009 14.60007,12.87409 3.96498,3.4959 4.91623,4.20185 6.07617,4.50823 1.7647,0.46612 4.55787,-0.30364 5.53935,-1.52613 0.68256,-0.85012 0.2872,-1.8252 -1.23652,-3.0501 -0.68064,-0.5472 -3.31016,-2.80205 -5.84393,-5.01077 -2.53375,-2.20874 -8.77786,-7.62989 -13.87364,-12.04733 -5.09628,-4.41745 -11.43545,-9.91869 -14.08854,-12.22483 l -4.82378,-4.19329 h -14.92566 z m -42.820554,14.41024 -0.949988,0.57912 c -0.598495,0.36547 -0.949271,0.84967 -0.949271,1.30994 0,0.46021 0.350776,0.94445 0.949271,1.30997 l 0.949988,0.58049 h 28.011384 c 27.75185,0 28.02142,-0.005 29.03083,-0.49032 1.36905,-0.65757 1.3994,-1.89722 0.0703,-2.71009 l -0.94928,-0.57911 h -28.08162 z m 87.868854,13.22626 -60.06657,0.0602 -60.068016,0.0602 -0.109243,3.15609 c -0.05978,1.74234 0.0552,3.27748 0.256858,3.42591 l 0.0015,-6.9e-4 c 0.271027,0.19927 15.786513,0.25246 60.068011,0.2047 l 59.7041,-0.0644 0.10703,-3.42022 z m -120.390715,9.45457 v 18.13539 c 0.0014,-3.06164 0.598126,-5.6353 1.790006,-7.71942 1.193876,-2.10153 2.666531,-3.15178 4.418591,-3.15178 1.643449,0 3.05122,1.07121 4.221784,3.21476 1.178361,2.12952 1.767575,4.68661 1.767575,7.67075 0,3.02619 -0.59758,5.60423 -1.791452,7.73375 -1.18606,2.12954 -2.61988,3.19403 -4.302095,3.19403 -1.682209,0 -3.120527,-1.06449 -4.314403,-3.19403 -1.191851,-2.14001 -1.788044,-4.71367 -1.790006,-7.71941 v 18.38738 H 57.68685 l 0.0015,-0.13944 v -0.0531 -17.43175 c 0,-3.20828 0.465472,-5.8208 1.395693,-7.83826 0.534925,-1.16281 1.212874,-2.08732 2.034557,-2.7738 0.829525,-0.68651 1.678551,-1.03008 2.546815,-1.03008 1.728737,0 3.186168,1.05096 4.372283,3.15253 1.18606,2.10152 1.779879,4.67951 1.779879,7.73373 0,2.97014 -0.589273,5.53394 -1.767578,7.69152 -1.178376,2.15755 -2.573896,3.23626 -4.18633,3.23626 -0.263576,0 -0.651832,-0.0494 -1.163442,-0.1475 v -8.65786 c 0.356558,0.51837 0.713479,0.77738 1.070103,0.77738 0.449635,0 0.833281,-0.30106 1.151135,-0.90337 0.325603,-0.60242 0.488381,-1.31725 0.488381,-2.14386 0,-0.82663 -0.166613,-1.52725 -0.499957,-2.10168 -0.333355,-0.58842 -0.732283,-0.88262 -1.197443,-0.88262 -1.116279,0 -1.674966,1.39383 -1.674966,4.18184 v 17.19049 h -0.0015 l 0.0015,0.14054 h 102.26193 v -20.26212 c -0.5521,0.0243 -0.94391,0.22657 -1.16198,0.62064 -0.22479,0.4063 -0.36776,1.21918 -0.42978,2.43808 -0.20168,4.04858 -1.07045,6.90693 -2.60543,8.57415 -0.81401,0.86856 -1.9688,1.30277 -3.46498,1.30277 h -0.60485 v -8.32213 h 0.19754 c 0.69771,0 1.19443,-0.25891 1.48902,-0.77742 0.30234,-0.53237 0.47659,-1.45687 0.5231,-2.7738 0.062,-2.14353 0.17063,-3.64998 0.32557,-4.51829 0.16284,-0.86861 0.48835,-1.73022 0.97678,-2.58484 0.85275,-1.49904 2.03499,-2.24913 3.54672,-2.24913 h 1.20829 v -7.9993 h -9.45288 v 17.43529 c 0,3.20833 -0.46604,5.82152 -1.39568,7.83898 -0.53493,1.16285 -1.21739,2.08732 -2.04686,2.7738 -0.82174,0.68653 -1.66625,1.02938 -2.53453,1.02938 -1.72878,0 -3.18753,-1.05056 -4.373,-3.15174 -1.18612,-2.10155 -1.77915,-4.67962 -1.77915,-7.73377 0,-2.95616 0.58927,-5.51321 1.76757,-7.6708 1.17839,-2.15754 2.57383,-3.23621 4.18636,-3.23621 0.25584,0 0.644,0.0418 1.1634,0.12574 v 8.65861 c -0.35659,-0.50435 -0.71346,-0.75662 -1.07008,-0.75662 -0.44962,0 -0.83712,0.30106 -1.16271,0.90338 -0.31786,0.58838 -0.47681,1.30359 -0.47681,2.14385 0,0.81259 0.16659,1.51321 0.49995,2.10164 0.33338,0.57444 0.7323,0.86117 1.19745,0.86117 1.11636,0 1.67497,-1.39386 1.67497,-4.18184 v -17.14157 h -42.39874 v 8.7352 c 0.73649,-0.96668 1.47316,-1.45025 2.20965,-1.45025 1.11631,0 2.00053,0.72833 2.65174,2.18542 0.65894,1.45704 0.98834,3.42574 0.98834,5.90554 v 13.28136 h -4.34914 v -11.0745 c 0,-0.89666 -0.0542,-1.49922 -0.16279,-1.80745 -0.10079,-0.30823 -0.30253,-0.46243 -0.60488,-0.46243 -0.48854,0 -0.73292,0.65127 -0.73292,1.95421 v 11.39017 h -4.34913 v -28.65728 z m 33.280118,7.24271 c 1.682275,0 3.093813,1.03678 4.233361,3.11024 1.147362,2.05949 1.720554,4.60272 1.720554,7.62854 0,0.30824 -0.01535,0.79852 -0.0463,1.47102 H 76.52681 c -0.100792,-0.60242 -0.151207,-1.15564 -0.151207,-1.65997 0,-0.70052 0.07031,-1.38695 0.209798,-2.05944 h 2.208934 c -0.155054,-1.55478 -0.639628,-2.33286 -1.453569,-2.33286 -0.542667,0 -0.984399,0.42065 -1.3255,1.26131 -0.341112,0.82656 -0.511534,1.89103 -0.511534,3.19396 0,1.35862 0.162787,2.45861 0.488382,3.29924 0.333349,0.84025 0.767432,1.26126 1.302344,1.26126 0.434149,0 0.852909,-0.39223 1.256047,-1.1768 l 2.476637,5.38013 c -1.15511,1.63918 -2.438296,2.45814 -3.849172,2.45814 -1.720983,0 -3.166934,-1.04355 -4.337547,-3.13101 -1.170547,-2.0875 -1.756002,-4.67231 -1.756002,-7.7545 0,-3.06825 0.589218,-5.66051 1.767579,-7.776 1.186062,-2.11553 2.639728,-3.17326 4.360703,-3.17326 z m 12.885309,0.0217 c 1.658948,0 2.988087,1.08539 3.988084,3.25699 0.782998,1.69522 1.17501,4.05617 1.17501,7.08238 v 11.05372 h -4.349128 v -11.83114 c 0,-1.20481 -0.275863,-1.80745 -0.826268,-1.80745 -0.542673,0 -0.81397,0.60264 -0.81397,1.80745 v 11.83112 h -4.349128 v -11.68434 c 0,-2.73195 0.500604,-5.02937 1.500602,-6.89271 1.000057,-1.87736 2.225096,-2.81602 3.674798,-2.81602 z m 45.561288,0 c 1.65898,0 2.988,1.08539 3.98808,3.25699 0.78302,1.69522 1.17502,4.05617 1.17502,7.08238 v 11.05372 h -4.34913 v -11.83114 c 0,-1.20481 -0.27511,-1.80745 -0.82555,-1.80745 -0.54268,0 -0.81471,0.60264 -0.81471,1.80745 v 11.83112 h -4.34912 v -11.68434 c 0,-2.73195 0.50053,-5.02937 1.5006,-6.89271 1.00008,-1.87736 2.22509,-2.81602 3.67481,-2.81602 z m -13.76874,0.0217 c 1.8761,0 3.35329,0.99518 4.43089,2.98426 1.08531,1.97543 1.62794,4.67922 1.62794,8.11171 v 10.27636 h -4.34914 v -9.70867 c 0,-1.10683 -0.15124,-1.98935 -0.45366,-2.64784 -0.29458,-0.65851 -0.69424,-0.98786 -1.19815,-0.98786 -0.45738,0 -0.85252,0.30105 -1.18586,0.90337 -0.33337,0.60239 -0.49997,1.3173 -0.49997,2.1439 0,0.86857 0.15124,1.58275 0.45366,2.14317 0.30236,0.56041 0.68598,0.84111 1.15113,0.84111 0.37987,0 0.7322,-0.18252 1.0578,-0.54688 v 8.13317 c -0.35665,0.11252 -0.68216,0.16794 -0.97676,0.16794 -1.74426,0 -3.19784,-1.03711 -4.36071,-3.11023 -1.16289,-2.07348 -1.74445,-4.67256 -1.74445,-7.79674 0,-3.0402 0.58541,-5.61823 1.75602,-7.73376 1.17839,-2.1155 2.60898,-3.17324 4.29126,-3.17324 z m -71.865147,7.73371 c -0.465158,0 -0.860973,0.30843 -1.186585,0.92487 -0.325539,0.60244 -0.488381,1.34498 -0.488381,2.22765 0,0.86861 0.162786,1.61123 0.488381,2.22761 0.333352,0.61648 0.729187,0.92413 1.186585,0.92413 0.46515,0 0.860264,-0.30767 1.185864,-0.92413 0.333351,-0.61638 0.499957,-1.359 0.499957,-2.22761 0,-0.88266 -0.162786,-1.62521 -0.488382,-2.22765 -0.325572,-0.61644 -0.724547,-0.92487 -1.197439,-0.92487 z"
     style="fill:#000000;fill-opacity:1;stroke-width:1.39264" />
</svg>
