<?xml version="1.0" encoding="UTF-8" standalone="no"?>
<!-- Created with Inkscape (http://www.inkscape.org/) -->

<svg
   width="210mm"
   height="297mm"
   viewBox="0 0 210 297"
   version="1.1"
   id="svg1"
   xml:space="preserve"
   inkscape:version="1.3.2 (091e20e, 2023-11-25, custom)"
   sodipodi:docname="logo.svg"
   xmlns:inkscape="http://www.inkscape.org/namespaces/inkscape"
   xmlns:sodipodi="http://sodipodi.sourceforge.net/DTD/sodipodi-0.dtd"
   xmlns="http://www.w3.org/2000/svg"
   xmlns:svg="http://www.w3.org/2000/svg"
   xmlns:rdf="http://www.w3.org/1999/02/22-rdf-syntax-ns#"
   xmlns:cc="http://creativecommons.org/ns#"
   xmlns:dc="http://purl.org/dc/elements/1.1/"><defs
     id="defs1" /><sodipodi:namedview
     id="base"
     pagecolor="#ffffff"
     bordercolor="#000000"
     borderopacity="0.3"
     inkscape:pageopacity="0.0"
     inkscape:pageshadow="2"
     inkscape:zoom="0.49497475"
     inkscape:cx="161.62441"
     inkscape:cy="522.24887"
     inkscape:document-units="mm"
     inkscape:showpageshadow="2"
     inkscape:pagecheckerboard="0"
     inkscape:deskcolor="#d1d1d1"
     inkscape:window-width="1920"
     inkscape:window-height="1051"
     inkscape:window-x="1341"
     inkscape:window-y="1032"
     inkscape:window-maximized="1"
     inkscape:current-layer="svg1" /><metadata
     id="metadata1"><rdf:RDF><cc:Work
         rdf:about=""><dc:format>image/svg+xml</dc:format><dc:type
           rdf:resource="http://purl.org/dc/dcmitype/StillImage" /></cc:Work></rdf:RDF></metadata><g
     id="g1"><rect
       style="display:none;opacity:0.752665;fill:#808080;stroke-width:0.001"
       id="rect156"
       width="147.5997"
       height="132.48065"
       x="27.970238"
       y="94.305061" /><path
       id="path2"
       style="display:inline;fill:#00ff00"
       d="m 76.155042,140.41107 c -0.233602,0.005 -0.394308,0.13289 -0.767396,0.51676 -0.709387,0.7299 -1.354451,2.42055 -1.703771,4.46536 -0.304533,1.78257 -0.234189,5.4031 0.141076,7.26519 0.966101,4.79376 3.214311,8.89658 6.631637,12.10314 1.733983,1.62705 3.2349,2.64532 6.631636,4.49947 3.902799,2.13025 5.269681,3.06632 7.111194,4.86947 2.833996,2.77482 4.7574,6.17209 5.523694,9.75599 0.262102,1.22581 0.307738,1.95519 0.315738,5.04 0.005,1.98388 0.0572,3.65454 0.11628,3.71244 0.0591,0.0579 0.42176,0.18781 0.80563,0.28887 0.9197,0.24209 0.87431,0.24561 1.21026,-0.0832 0.34325,-0.33597 0.35025,-0.50857 0.14108,-3.65766 -0.39679,-5.97369 -1.53019,-10.85125 -3.161563,-13.6064 -2.168476,-3.66245 -4.554634,-5.73037 -9.921875,-8.59793 -3.636211,-1.94272 -4.629481,-2.63695 -6.759794,-4.72736 -3.279267,-3.21771 -5.120568,-6.40843 -5.92677,-10.26862 -0.725259,-3.47274 -0.517021,-6.43048 0.643372,-9.12348 0.211262,-0.49031 0.384472,-1.07557 0.384472,-1.30069 0,-0.50371 -0.502071,-0.99477 -1.146183,-1.12086 -0.104627,-0.0205 -0.190862,-0.0323 -0.268717,-0.0305 z m 55.189398,0.0222 c -0.58997,0.0154 -1.19031,0.48786 -1.19941,1.00821 -0.003,0.14675 0.23409,0.88868 0.52555,1.64847 0.68026,1.77333 0.92262,3.12768 0.92862,5.17953 0.0141,5.12644 -2.16094,10.01797 -6.21357,13.97434 -1.8176,1.77442 -3.22924,2.76667 -6.52053,4.58319 -4.22406,2.33111 -5.80273,3.43713 -7.60884,5.3299 -3.30142,3.46007 -4.79487,7.41782 -5.57382,14.77016 -0.1638,1.54627 -0.21557,5.68639 -0.0739,5.91075 0.12269,0.19429 0.87406,0.17402 1.61437,-0.045 l 0.58601,-0.17311 -0.0506,-3.14865 c -0.0427,-2.66364 -0.004,-3.42404 0.25063,-4.93975 0.42141,-2.50685 0.99822,-4.0238 2.42156,-6.36808 2.24202,-3.69285 4.70074,-5.80685 10.33787,-8.88835 1.40945,-0.77047 3.18863,-1.8243 3.95376,-2.34198 1.75136,-1.18496 4.35272,-3.73398 5.4436,-5.33404 1.8341,-2.6902 3.2601,-6.13417 3.78943,-9.15138 0.51557,-2.93858 0.32514,-7.07352 -0.42375,-9.2015 -0.61333,-1.7429 -1.23534,-2.63932 -1.93631,-2.79001 -0.0821,-0.0177 -0.16635,-0.0249 -0.25063,-0.0227 z m -61.091364,3.26595 c -0.203758,-0.008 -0.40983,0.0325 -0.597379,0.13074 -0.588111,0.30806 -1.018543,2.85024 -1.018543,6.01617 0,7.04985 2.652203,13.72961 7.38973,18.61127 1.892402,1.94998 4.611036,3.88292 8.498706,6.04304 2.635905,1.46461 4.80477,2.81047 6.167582,3.82716 1.635586,1.22017 3.916458,3.60173 5.053439,5.27616 1.117613,1.64592 1.340262,2.05645 2.166792,4.00027 0.332468,0.78188 0.679363,1.50989 0.771013,1.61799 v 5.2e-4 c 0.140146,0.16525 0.203636,0.16019 0.398942,-0.031 0.185186,-0.18141 0.231043,-0.55351 0.226343,-1.83503 -0.0052,-1.42571 -0.05861,-1.7564 -0.47284,-2.9316 -0.865196,-2.45469 -2.222875,-4.44629 -4.525305,-6.63887 -2.226844,-2.1206 -3.656535,-3.10868 -8.394836,-5.8012 -3.635312,-2.06574 -5.420126,-3.2732 -7.025411,-4.75216 -5.353614,-4.93273 -8.250704,-12.5053 -7.605221,-19.88044 0.104175,-1.19033 0.186084,-2.35391 0.181384,-2.58538 -0.0119,-0.59205 -0.603121,-1.04429 -1.214396,-1.06763 z m 67.181434,0.0109 c -0.26168,0.005 -0.53342,0.097 -0.77722,0.28474 l -0.40462,0.31212 0.12867,1.58699 c 0.20522,2.52414 0.13975,6.27759 -0.13539,7.76696 -0.81267,4.39939 -3.06092,8.98107 -6.0048,12.23802 -2.07983,2.30091 -4.26256,3.86722 -9.48005,6.80165 -4.44103,2.4978 -7.38934,4.85294 -9.51569,7.60264 -0.90464,1.16976 -2.06998,3.46893 -2.43345,4.80125 -0.31065,1.13876 -0.35624,3.36576 -0.078,3.84266 0.10613,0.18216 0.27034,0.30624 0.36484,0.27544 0.0945,-0.0308 0.45416,-0.72726 0.79891,-1.54771 1.24943,-2.97229 2.61032,-4.95508 5.01055,-7.29981 1.8981,-1.85432 3.30395,-2.83548 7.98349,-5.57072 4.58241,-2.67852 6.46712,-3.99247 8.34471,-5.81825 3.76666,-3.66247 6.49514,-8.69053 7.46518,-13.7573 0.62976,-3.28944 0.51006,-9.28859 -0.21652,-10.84895 -0.16454,-0.35335 -0.45931,-0.57502 -0.79375,-0.64544 -0.0836,-0.0176 -0.16961,-0.0259 -0.25683,-0.0243 z m -64.542835,25.19795 v 5.1e-4 c -0.232326,0 -0.09883,0.39264 0.583943,1.71979 1.726783,3.35682 4.643347,6.03538 10.455693,9.60149 4.673751,2.8674 6.355238,4.20775 8.07806,6.44043 0.86246,1.1177 2.080458,3.26931 2.491321,4.40025 0.139374,0.38365 0.296243,0.48855 1.097607,0.7369 1.212157,0.37567 1.594485,0.39217 1.593185,0.0687 -0.0021,-0.52451 -0.581383,-2.58236 -0.978235,-3.47575 -1.951977,-4.39417 -4.539421,-6.81801 -11.394654,-10.67584 -4.66107,-2.62294 -6.862465,-4.2017 -10.035046,-7.19542 -0.944884,-0.89165 -1.796174,-1.62109 -1.891874,-1.62109 z m 61.970895,0.12144 c -0.10925,0.001 -0.34232,0.17988 -0.70073,0.52761 -1.18717,1.15179 -3.57434,3.23723 -4.68034,4.08916 -1.94179,1.49572 -3.27827,2.33247 -7.54166,4.72116 -5.38237,3.01557 -8.06097,5.45298 -9.86399,8.97516 -0.71956,1.40556 -1.41129,3.51273 -1.41129,4.29948 0,0.59569 0.14893,0.61107 1.52549,0.15658 l 0.99684,-0.32918 0.49041,-1.18959 c 1.02992,-2.49881 3.37937,-5.35391 5.91953,-7.19336 0.60405,-0.4374 2.31766,-1.55908 3.80752,-2.49236 6.36473,-3.98653 9.37524,-6.74249 10.9828,-10.05416 0.49598,-1.02178 0.65751,-1.51257 0.47542,-1.5105 z" /><path
       style="display:inline;fill:#ffffff"
       d="m 119.61494,159.37594 c -0.0248,8.8e-4 -0.0526,0.005 -0.078,0.007 -0.001,5e-5 -0.002,4.5e-4 -0.003,5.1e-4 -0.0636,0.005 -0.12846,0.0101 -0.19637,0.0202 -0.0141,0.002 -0.0277,0.002 -0.0419,0.005 -0.0225,0.004 -0.0542,0.0122 -0.0791,0.0171 -0.20736,0.0389 -0.43324,0.0989 -0.68988,0.18603 -1.39567,0.47379 -4.53198,1.87874 -5.70715,2.55644 -0.7447,0.42946 -1.47596,0.93059 -2.12338,1.4552 -0.1308,0.10598 -0.31503,0.27313 -0.51832,0.46509 -0.47081,0.43026 -0.94892,0.91329 -1.32498,1.34617 -0.0936,0.10395 -0.17839,0.1997 -0.2372,0.27337 -1.19083,1.49173 -2.41305,3.91711 -2.80551,5.43791 -0.007,0.0276 -0.0135,0.0536 -0.0202,0.0806 -0.0187,0.0768 -0.0361,0.15223 -0.0501,0.22376 -0.007,0.0364 -0.0122,0.0701 -0.0181,0.1049 -0.0106,0.063 -0.0204,0.12503 -0.0269,0.18293 -7.5e-4,0.007 -0.002,0.0149 -0.003,0.0217 -0.002,0.0177 -0.001,0.0332 -0.003,0.0506 -0.004,0.0486 -0.0103,0.10036 -0.0109,0.1447 -2.5e-4,0.0195 0.002,0.0335 0.002,0.0522 10e-6,0.0304 0.002,0.0591 0.003,0.0884 0.0102,0.29017 0.0641,0.48772 0.19483,0.663 0.0118,0.0172 0.0239,0.0343 0.0367,0.0506 l 5.1e-4,5.1e-4 c 2.3e-4,2.9e-4 2.9e-4,7.8e-4 5.2e-4,0.001 0.0645,0.0819 0.14419,0.15123 0.23513,0.21084 0.1061,0.074 0.22422,0.13064 0.37258,0.17415 0.0632,0.0185 0.14906,0.0279 0.24237,0.032 0.15571,0.0122 0.32047,9.6e-4 0.46922,-0.0289 0.0849,-0.0149 0.16124,-0.0342 0.21756,-0.0584 0.33663,-0.14481 0.46387,-0.32449 1.47691,-2.08928 0.77317,-1.34695 0.98935,-1.69989 1.37563,-2.24534 1.03135,-1.45631 2.21521,-2.63452 3.51348,-3.49746 0.81809,-0.54377 3.75149,-2.02392 5.7676,-2.9099 0.19914,-0.0875 0.34202,-0.15629 0.46664,-0.22117 0.0357,-0.0166 0.0617,-0.0306 0.0935,-0.0475 0.0203,-0.0105 0.0528,-0.0255 0.0667,-0.0336 0.005,-0.003 0.0136,-0.0106 0.0191,-0.014 0.005,-0.003 0.0133,-0.007 0.0176,-0.0103 0.009,-0.006 0.0203,-0.0163 0.0294,-0.0227 0.10867,-0.0716 0.20527,-0.15664 0.30748,-0.2558 0.0125,-0.0119 0.0221,-0.0189 0.0351,-0.0315 0.0166,-0.016 0.0244,-0.0262 0.0398,-0.0413 0.017,-0.0173 0.0306,-0.0288 0.0486,-0.0475 0.0159,-0.0166 0.0243,-0.0279 0.0388,-0.0434 0.0207,-0.0216 0.0455,-0.046 0.0636,-0.0661 3.1e-4,-3.5e-4 2e-4,-7.1e-4 5.2e-4,-0.001 0.0791,-0.0889 0.14199,-0.17112 0.17932,-0.25373 l 5.1e-4,-5.2e-4 c 2.4e-4,-5e-4 2.9e-4,-0.001 5.2e-4,-0.002 7.3e-4,-0.002 9e-4,-0.004 0.002,-0.005 0.0506,-0.10959 0.0716,-0.22803 0.0863,-0.40825 0.0196,-0.23909 -0.0372,-0.60607 -0.12454,-0.80408 -0.0295,-0.0668 -0.0787,-0.13609 -0.13384,-0.20464 -7.2e-4,-0.001 -9e-4,-0.002 -0.002,-0.003 -0.006,-0.008 -0.0132,-0.0141 -0.0191,-0.0217 -0.0208,-0.0246 -0.0391,-0.0499 -0.062,-0.0734 l -5.2e-4,-5.2e-4 c -0.003,-0.003 -0.007,-0.006 -0.0103,-0.0103 l -0.006,-0.006 c -0.0146,-0.0148 -0.0294,-0.0294 -0.045,-0.0434 -0.0276,-0.0255 -0.0566,-0.0502 -0.0868,-0.0729 -0.005,-0.004 -0.009,-0.007 -0.0134,-0.01 -0.0411,-0.0298 -0.0841,-0.0581 -0.12971,-0.0827 -0.009,-0.005 -0.0173,-0.0117 -0.0258,-0.016 -0.0256,-0.0129 -0.0521,-0.0222 -0.078,-0.0336 -0.001,-5.1e-4 -0.002,-0.001 -0.004,-0.002 -0.22037,-0.0962 -0.45434,-0.1429 -0.72606,-0.13332 z"
       id="path155" /><path
       style="display:inline;fill:#ffffff"
       d="m 88.147611,159.34084 v 0.002 c -0.0084,3.1e-4 -0.01602,0.002 -0.02429,0.002 -0.185047,-9e-5 -0.265921,0.016 -0.405143,0.063 -0.07674,0.0259 -0.15112,0.0597 -0.223759,0.0966 -0.0026,0.001 -0.0051,0.003 -0.0078,0.004 -0.0069,0.003 -0.01336,0.007 -0.02015,0.0103 -0.02272,0.0121 -0.04507,0.0242 -0.06718,0.0372 -0.126093,0.0708 -0.238956,0.15579 -0.334346,0.25425 -0.113852,0.11209 -0.205102,0.23544 -0.261483,0.36174 -0.0088,0.0196 -0.01628,0.0425 -0.02377,0.0651 -0.02024,0.0515 -0.03243,0.10752 -0.03927,0.17725 -0.03398,0.21196 -0.03132,0.4687 0.01912,0.66559 v 5.2e-4 c 0.02591,0.12633 0.0765,0.22735 0.151412,0.32763 0.01395,0.0199 0.03108,0.0402 0.04703,0.0599 0.01623,0.0203 0.03566,0.0415 0.05426,0.062 0.0042,0.004 0.0065,0.008 0.01085,0.0129 0.0013,0.001 0.0028,0.003 0.0041,0.004 0.02725,0.0288 0.05766,0.0587 0.08992,0.0884 0.01471,0.0134 0.03055,0.0272 0.04651,0.0408 3.46e-4,3e-4 7.2e-4,7.6e-4 10e-4,0.001 0.0329,0.0287 0.06123,0.056 0.09922,0.0863 0.103536,0.0825 0.239834,0.17141 0.417546,0.27647 0.05961,0.0357 0.14305,0.0805 0.212907,0.11989 0.09731,0.0538 0.201532,0.11168 0.33538,0.1819 0.0025,0.001 0.0053,0.003 0.0078,0.004 7.59e-4,4e-4 0.0013,6.7e-4 0.0021,10e-4 l 5.17e-4,5.2e-4 c 6.08e-4,3.2e-4 0.0015,7.5e-4 0.0021,10e-4 0.0897,0.0473 0.176308,0.0945 0.280603,0.14779 0.09641,0.0497 0.235104,0.11718 0.343132,0.17157 0.448949,0.22743 0.996187,0.50208 1.788521,0.89555 1.35054,0.67068 2.656387,1.33367 2.901632,1.47381 1.085782,0.62048 1.569171,1.0158 2.648933,2.16628 1.031099,1.09863 1.497078,1.77349 2.779676,4.02404 0.585615,1.02758 0.854959,1.47805 1.079001,1.70533 v 5.1e-4 c 0.0236,0.0256 0.0444,0.045 0.062,0.0584 0.006,0.005 0.0176,0.011 0.0248,0.016 0.10132,0.0815 0.20122,0.12936 0.32607,0.17001 0.01,0.003 0.0499,0.005 0.0729,0.007 0.0875,0.015 0.1953,0.0179 0.39481,0.0124 0.008,-2.3e-4 0.0118,-2.9e-4 0.0196,-5.1e-4 0.002,-7e-5 0.003,-4.5e-4 0.005,-5.2e-4 0.0226,-6.4e-4 0.0374,-0.001 0.0574,-0.002 0.27714,-0.008 0.33647,-0.0221 0.53072,-0.11885 0.0886,-0.0441 0.16783,-0.0999 0.24185,-0.1602 0.0177,-0.0136 0.0357,-0.0266 0.0522,-0.0408 3.8e-4,-3.2e-4 6.9e-4,-7.4e-4 0.001,-0.001 0.005,-0.005 0.0107,-0.009 0.016,-0.0139 0.008,-0.008 0.0162,-0.0159 0.0243,-0.0238 0.007,-0.007 0.0126,-0.0134 0.0191,-0.0202 l 0.0114,-0.0114 c 0.01,-0.0104 0.0207,-0.0202 0.03,-0.031 0.017,-0.0194 0.0305,-0.0405 0.0455,-0.061 0.009,-0.0125 0.0191,-0.0243 0.0274,-0.0372 0.005,-0.008 0.0119,-0.0162 0.017,-0.0248 0.0383,-0.0598 0.0697,-0.12109 0.0904,-0.18345 0.0236,-0.0712 0.0346,-0.16087 0.0403,-0.25838 3.2e-4,-0.004 2.3e-4,-0.008 5.2e-4,-0.0114 7.6e-4,-0.01 0.001,-0.0204 0.002,-0.0305 0.002,-0.0345 0.005,-0.0677 0.005,-0.10439 0,-0.007 -0.001,-0.016 -0.002,-0.0227 -0.001,-0.0609 -0.006,-0.1262 -0.0134,-0.19327 -0.004,-0.0381 -0.009,-0.0775 -0.015,-0.11833 -0.003,-0.0226 -0.008,-0.047 -0.0124,-0.0703 -0.0134,-0.0798 -0.0286,-0.16149 -0.0486,-0.25012 -0.10379,-0.48213 -0.29567,-1.06735 -0.56741,-1.70842 -1.02651,-2.42162 -2.545825,-4.4941 -4.486546,-6.12107 -0.714006,-0.59858 -1.211814,-0.92668 -2.160075,-1.42731 -0.0032,-0.002 -0.0086,-0.004 -0.01189,-0.006 -0.0936,-0.0494 -0.167792,-0.0913 -0.271301,-0.1447 -0.901818,-0.46482 -1.81309,-0.90822 -2.66237,-1.30638 -0.006,-0.003 -0.01057,-0.004 -0.01654,-0.007 -1.156967,-0.54205 -2.183213,-0.9894 -2.786393,-1.19786 -0.255454,-0.0883 -0.363779,-0.1154 -0.580844,-0.12919 -0.02326,-0.002 -0.04854,-0.002 -0.07235,-0.004 -0.02468,-0.002 -0.04795,-0.003 -0.07235,-0.005 -0.04395,-0.002 -0.08646,-0.006 -0.130224,-0.006 -0.0079,-6e-5 -0.01483,0.001 -0.02274,0.001 -0.03321,-2.8e-4 -0.06859,-0.005 -0.100769,-0.004 z"
       id="path154" /><path
       id="path153"
       style="display:inline;fill:#000000"
       d="m 103.83449,121.87266 -0.001,0.001 c -0.002,0 -0.004,0.001 -0.006,0.001 -0.0243,8.4e-4 -0.0497,0.008 -0.076,0.0196 -0.002,9.3e-4 -0.005,0.002 -0.007,0.003 -0.0139,0.007 -0.0288,0.0154 -0.0439,0.0258 -0.008,0.006 -0.0174,0.0116 -0.0264,0.0186 -0.0113,0.009 -0.0229,0.0198 -0.0351,0.031 -0.0147,0.0134 -0.0309,0.0293 -0.0475,0.0465 -0.005,0.006 -0.011,0.0116 -0.0165,0.0176 -0.0969,0.10352 -0.22646,0.26793 -0.43305,0.54001 -0.54112,0.71269 -1.18748,1.3674 -1.64227,1.66295 -0.41775,0.27149 -1.03584,0.5586 -1.826764,0.84905 -0.110227,0.0405 -0.216598,0.0827 -0.318327,0.12454 -0.165182,0.0636 -0.282077,0.11546 -0.363802,0.16278 -0.06207,0.0313 -0.111495,0.0585 -0.132808,0.0765 -0.0096,0.008 -0.0168,0.0161 -0.02532,0.0243 -0.05999,0.0481 -0.09083,0.0954 -0.103353,0.14624 -0.02012,0.056 -0.01238,0.11139 0.02377,0.1664 0.02792,0.0485 0.07689,0.0956 0.144178,0.14159 0.245894,0.18908 0.634386,0.2973 2.067056,0.59738 0.66308,0.13889 1.31079,0.31048 1.79524,0.47542 0.23801,0.081 0.39828,0.13455 0.52607,0.17209 0.009,0.003 0.0352,0.013 0.0429,0.0155 0.0391,0.0128 0.0869,0.0227 0.13797,0.0315 0.0705,0.0146 0.13405,0.0217 0.20102,0.0248 0.15023,0.0186 0.30006,0.0161 0.46044,-0.006 0.008,-9.6e-4 0.0155,-0.002 0.0233,-0.003 0.0505,-0.005 0.0992,-0.0116 0.14469,-0.0196 0.18156,-0.0254 0.33539,-0.0743 0.61547,-0.18139 0.59505,-0.22757 0.86908,-0.29841 1.8898,-0.48782 0.8149,-0.15124 1.26547,-0.25916 1.55546,-0.38602 0.0572,-0.0214 0.10773,-0.0424 0.14573,-0.062 0.0559,-0.0289 0.11253,-0.0737 0.1633,-0.1235 0.008,-0.007 0.0152,-0.0137 0.0227,-0.0207 0.005,-0.004 0.01,-0.008 0.0145,-0.0119 0.0685,-0.0641 0.10687,-0.12731 0.11885,-0.18913 4.3e-4,-0.002 0.001,-0.003 0.002,-0.005 0.006,-0.0181 0.01,-0.0346 0.01,-0.0496 0,-0.028 -0.008,-0.0553 -0.0274,-0.0847 -0.0385,-0.0867 -0.20651,-0.19933 -0.56069,-0.37052 -0.20404,-0.10897 -0.44815,-0.23584 -0.71159,-0.36794 -0.59764,-0.2997 -1.19925,-0.61015 -1.33686,-0.69039 -0.33921,-0.19778 -0.88413,-0.72415 -1.37046,-1.32292 -0.21978,-0.2706 -0.39854,-0.47599 -0.54881,-0.63821 -0.0101,-0.0113 -0.0197,-0.0224 -0.0294,-0.0331 -0.0322,-0.0343 -0.067,-0.0725 -0.0956,-0.10128 -0.008,-0.009 -0.0162,-0.0158 -0.0243,-0.0238 -0.0267,-0.0264 -0.0523,-0.0508 -0.0755,-0.0718 -0.004,-0.004 -0.009,-0.008 -0.0134,-0.0119 -0.003,-0.003 -0.006,-0.005 -0.009,-0.008 -0.002,-0.001 -0.003,-0.003 -0.005,-0.004 l -5.2e-4,-5.2e-4 c -0.0732,-0.0633 -0.12856,-0.0997 -0.15916,-0.0997 -0.008,0 -0.0147,0.002 -0.0222,0.002 -0.003,-2.1e-4 -0.007,-0.002 -0.009,-0.002 z m -13.338722,3.1688 c -0.03924,-0.002 -0.07881,-0.002 -0.118339,5.2e-4 -0.316217,0.0187 -0.638957,0.17561 -0.931209,0.46819 -0.578221,0.57887 -1.835166,3.06291 -2.124418,4.19871 -0.28705,1.12712 -0.52665,3.05336 -0.52555,4.22403 0.0012,1.2648 0.371676,3.59569 0.752409,4.73356 1.264628,3.77944 3.89489,6.97226 7.227466,8.77259 v -5.1e-4 c 0.989528,0.53458 1.841242,0.54328 2.259294,0.0233 0.585023,-0.72796 0.330994,-1.18121 -1.141016,-2.03708 -2.114759,-1.22969 -4.339109,-3.71825 -5.431193,-6.0756 -1.731318,-3.7373 -1.486689,-8.8303 0.572575,-11.92382 0.683861,-1.02736 0.740928,-1.52554 0.232544,-2.02314 -0.232029,-0.22709 -0.497852,-0.34685 -0.772563,-0.3607 z m 26.751852,0.008 v 5.2e-4 c -0.42849,0 -0.62842,0.0878 -0.86144,0.37775 -0.42999,0.53503 -0.38141,0.89301 0.25321,1.85725 1.23176,1.87152 1.80985,3.96101 1.82005,6.57996 0.0141,3.60392 -1.26539,6.67154 -3.90674,9.36636 -1.28344,1.30942 -2.6257,2.26124 -6.0849,4.31601 -5.20297,3.09053 -8.07235,5.48503 -10.780739,8.99584 -1.32116,1.71256 -1.525412,2.42292 -0.907439,3.15174 0.225554,0.26593 1.065435,0.225 1.394747,-0.0677 0.155241,-0.13795 0.663263,-0.75026 1.12913,-1.36064 2.602171,-3.40963 5.560091,-5.79714 11.580691,-9.34775 2.83282,-1.6707 4.13509,-2.63987 5.65702,-4.21112 2.00723,-2.07228 3.18299,-4.13243 3.96978,-6.9572 0.28036,-1.00659 0.3236,-1.52844 0.3266,-3.88606 0.003,-2.42325 -0.0336,-2.84974 -0.33435,-3.87005 -0.45933,-1.55841 -1.48107,-3.62634 -2.14819,-4.34909 -0.46152,-0.50003 -0.63872,-0.59583 -1.10743,-0.59583 z m -23.147421,2.58072 c -0.29245,0.008 -0.588011,0.14035 -0.849043,0.39584 -0.45946,0.4497 -1.092677,2.17905 -1.324467,3.61735 -0.437569,2.71515 0.153914,5.64598 1.631941,8.08582 1.07139,1.76855 3.398872,3.77206 5.428093,4.67361 0.716504,0.31834 1.167287,0.35108 1.620057,0.11782 0.43311,-0.22313 0.53392,-0.40006 0.53692,-0.93586 0.003,-0.53085 -0.23668,-0.80075 -1.07436,-1.21388 -1.905459,-0.93972 -3.844126,-2.78776 -4.682397,-4.46226 -0.78775,-1.57351 -1.027977,-2.63974 -1.022677,-4.54545 0.004,-1.45294 0.0592,-1.81132 0.464571,-3.02463 0.553941,-1.65798 0.564181,-1.90288 0.100252,-2.35696 -0.247412,-0.24217 -0.536433,-0.35907 -0.82889,-0.3514 z m 19.475301,0.002 c -0.53268,0.0147 -1.00718,0.39095 -1.00718,0.99839 0,0.23483 0.17484,0.92787 0.38861,1.54047 0.51602,1.47872 0.6385,3.81306 0.28267,5.37849 -0.69987,3.07895 -2.51093,5.09528 -6.84713,7.62227 -4.01619,2.34055 -6.11817,3.80568 -8.730214,6.08645 -2.363874,2.06408 -2.983148,3.14415 -2.227254,3.884 0.590477,0.57794 1.051984,0.39697 2.599841,-1.01958 2.794677,-2.55752 4.620627,-3.8718 8.856827,-6.37532 3.43638,-2.03089 4.3145,-2.6351 5.48648,-3.77444 1.59569,-1.55127 2.7075,-3.44133 3.29386,-5.59966 0.71297,-2.62442 0.0955,-7.05165 -1.16479,-8.34885 -0.27159,-0.27955 -0.61211,-0.40102 -0.93172,-0.39222 z m -9.79269,1.6862 a 4.7592034,4.6181579 0 0 0 -4.759397,4.61781 4.7592034,4.6181579 0 0 0 1.766297,3.58014 c 0.48293,0.41001 1.05695,0.74012 1.72186,0.94361 1.7856,0.54647 3.92939,-0.0944 5.08238,-1.51928 0.80766,-0.99811 1.05472,-1.7861 0.98702,-3.14762 -0.0692,-1.39178 -0.36104,-2.08445 -1.29811,-3.07939 -0.50076,-0.53174 -1.57719,-1.1294 -2.06189,-1.18133 -0.003,-3.2e-4 -0.005,8e-4 -0.008,5.2e-4 a 4.7592034,4.6181579 0 0 0 -1.43041,-0.21446 z m 8.50594,21.69687 c -0.0318,-0.001 -0.0646,-3.3e-4 -0.0982,0.002 v -5.2e-4 c -0.44767,0.032 -1.07206,0.393 -2.33836,1.2299 -3.92265,2.59249 -6.1899,4.53462 -8.28993,7.10241 -1.691902,2.06861 -1.887445,2.56338 -1.26918,3.20755 v 5.2e-4 c 0.40625,0.42301 1.02586,0.42756 1.48053,0.009 0.19298,-0.17737 0.82766,-0.88482 1.41077,-1.572 1.95154,-2.29976 4.35174,-4.34771 7.9654,-6.797 2.44606,-1.65788 2.74447,-2.15298 1.75597,-2.91403 -0.21149,-0.16282 -0.39455,-0.25951 -0.61702,-0.2682 z m -1.72031,6.71328 c -0.88877,0 -4.32291,3.00012 -6.15207,5.37487 -1.44767,1.8794 -1.63553,2.42439 -1.048,3.03651 0.314,0.32714 0.75228,0.41553 1.20923,0.24391 0.12855,-0.0483 0.71032,-0.70943 1.29294,-1.46916 1.28825,-1.67987 3.07283,-3.45222 4.5589,-4.52789 1.24628,-0.90218 1.46738,-1.20146 1.3317,-1.80609 -0.11752,-0.52371 -0.57691,-0.85215 -1.1927,-0.85215 z" /><path
       style="display:inline;fill:#000000"
       d="m 103.76731,117.14892 c -0.46558,-2e-5 -0.73758,0.01 -1.07177,0.016 -0.0347,3.3e-4 -0.0774,0.001 -0.10955,0.002 -0.2047,0.004 -0.49238,0.002 -0.67438,0.0103 -0.087,0.003 -0.31812,0.002 -0.37569,0.005 -1.24339,0.0747 -2.461722,0.2275 -3.692797,0.45837 -0.01169,0.002 -0.02292,0.004 -0.03462,0.006 -1.438043,0.27143 -2.894073,0.65104 -4.431254,1.15858 -0.178109,0.0588 -0.372469,0.13632 -0.555522,0.19999 -0.137316,0.0476 -0.276842,0.0878 -0.413411,0.13694 -0.163522,0.0589 -0.333354,0.12964 -0.499194,0.19172 -0.318835,0.11918 -0.626274,0.23646 -0.947229,0.36432 -0.273386,0.10921 -0.535899,0.21904 -0.806669,0.3328 -0.379596,0.1589 -0.743832,0.31294 -1.107426,0.47594 -0.109932,0.0494 -0.211056,0.0968 -0.318844,0.14624 -0.115834,0.0527 -0.234084,0.10588 -0.345715,0.15813 -0.04187,0.0194 -0.09062,0.0412 -0.131775,0.0605 -0.146471,0.0693 -0.297256,0.1399 -0.437183,0.20877 -0.645834,0.31582 -1.238129,0.624 -1.703255,0.90331 -1.145832,0.68808 -2.697294,1.72918 -3.589445,2.39107 -0.164258,0.11689 -0.21606,0.16049 -0.29714,0.22376 l -0.190169,0.13332 v 0.0145 c -0.0057,0.0122 -0.04214,0.0448 -0.05426,0.061 -0.01882,0.0168 -0.06856,0.0521 -0.08372,0.0667 -0.122184,0.1177 -0.49757,0.44598 -0.834574,0.72916 -0.157913,0.13269 -0.269362,0.23821 -0.415479,0.36328 -0.287008,0.24488 -0.565014,0.48733 -0.83044,0.72502 -0.157089,0.14097 -0.337029,0.29923 -0.486792,0.43822 -0.393472,0.364 -0.765805,0.72785 -1.129647,1.09502 -0.04708,0.0475 -0.09242,0.0874 -0.140043,0.13591 -0.07199,0.0733 -0.138528,0.14851 -0.209806,0.22221 -0.07299,0.0758 -0.148731,0.14929 -0.221175,0.22583 -0.07935,0.0838 -0.150653,0.16512 -0.22841,0.24856 -0.01561,0.0167 -0.03095,0.0334 -0.04651,0.0501 -0.199771,0.21417 -0.394562,0.42573 -0.585494,0.63976 -0.05803,0.0651 -0.112114,0.12807 -0.168982,0.19275 -0.847922,0.96369 -1.601433,1.90965 -2.148189,2.72593 -0.09846,0.147 -0.301166,0.43275 -0.450619,0.63511 -0.133985,0.18141 -0.273198,0.39093 -0.411344,0.59479 -0.01413,0.0207 -0.02703,0.0387 -0.04134,0.0599 -0.676969,1.00694 -1.392995,2.25352 -2.085661,3.65456 -0.413594,0.83656 -0.616313,1.2971 -0.787549,1.78748 -0.03588,0.10276 -0.06285,0.20782 -0.08268,0.31109 -0.0067,0.0316 -0.01002,0.0726 -0.01395,0.10336 -0.02353,0.12734 -0.02988,0.24079 -0.01809,0.34416 4.42e-4,0.004 1.7e-5,0.008 5.17e-4,0.0124 0.0016,0.0125 0.003,0.0265 0.0052,0.0387 0.0025,0.0228 0.005,0.0444 0.0088,0.0656 0.0038,0.0244 0.01398,0.0481 0.02015,0.0693 0.01,0.036 0.01602,0.0773 0.03049,0.10645 0.01473,0.0297 0.06988,0.0857 0.09974,0.12661 0.03419,0.0489 0.07184,0.0969 0.116789,0.14986 0.01139,0.0143 0.01992,0.0272 0.03204,0.0419 0.0018,0.002 0.0053,0.005 0.0072,0.008 0.02163,0.0237 0.03278,0.037 0.05529,0.0605 0.0038,0.004 0.007,0.008 0.01085,0.0119 0.0015,0.002 0.0032,0.003 0.0047,0.004 0.02926,0.0303 0.05638,0.0542 0.08578,0.0827 0.01899,0.0181 0.03691,0.0406 0.05323,0.0548 0.0025,0.002 0.0072,0.005 0.0098,0.007 0.0019,0.002 0.0038,0.003 0.0057,0.004 0.01145,0.0102 0.02287,0.023 0.03411,0.0326 0.03745,0.0328 0.06568,0.0515 0.09767,0.0749 0.01145,0.008 0.02933,0.0289 0.03979,0.0357 0.01057,0.007 0.01647,0.006 0.02584,0.0119 0.0049,0.003 0.013,0.0106 0.01757,0.0129 0.01129,0.006 0.02204,0.006 0.03256,0.0103 0.03936,0.0208 0.09488,0.0427 0.146245,0.0481 0.0059,0.002 0.01501,0.006 0.02015,0.007 0.0091,0.002 0.0443,-9.1e-4 0.05994,0 0.08968,0.0116 0.199095,0.009 0.314193,-0.008 0.03284,-0.004 0.06212,-0.009 0.0925,-0.015 0.06857,-0.007 0.152015,-0.0237 0.206189,-0.0424 0.14198,-0.0401 0.266412,-0.10672 0.389123,-0.20619 0.02513,-0.0188 0.05405,-0.0421 0.07855,-0.0641 0.0063,-0.006 0.01225,-0.009 0.0186,-0.015 0.06464,-0.0605 0.127608,-0.13419 0.195337,-0.22479 0.01399,-0.0192 0.03197,-0.0471 0.04651,-0.0682 0.05871,-0.0837 0.146892,-0.23163 0.225309,-0.36432 0.08441,-0.14489 0.194672,-0.34516 0.306958,-0.55294 0.09325,-0.17006 0.13965,-0.24179 0.264583,-0.47542 0.864674,-1.61701 1.57186,-2.8118 2.401921,-4.038 0.0077,-0.0114 0.01549,-0.0227 0.02325,-0.0341 0.274348,-0.40437 0.561547,-0.81197 0.873332,-1.24024 1.078515,-1.48144 1.675515,-2.16388 3.303674,-3.776 0.945567,-0.93625 1.288879,-1.25957 1.79834,-1.65933 0.137127,-0.10779 0.382686,-0.29024 0.610299,-0.46147 2.102365,-1.56923 3.292225,-2.39792 4.44469,-3.08508 0.447508,-0.26683 0.887284,-0.51455 1.324467,-0.75499 0.08967,-0.0492 0.173217,-0.0974 0.265616,-0.14728 3.456985,-1.86746 6.668286,-2.93513 10.527523,-3.52485 1.364137,-0.20846 1.269487,-0.20465 4.911327,-0.20412 3.63435,5.7e-4 3.47973,-0.006 4.74389,0.20464 3.32881,0.55463 6.24475,1.50499 9.27954,3.02359 2.2237,1.11272 4.60987,2.64899 6.27197,4.03851 1.00219,0.83783 2.97439,2.63995 3.90054,3.56412 l 0.57361,0.57206 0.0698,0.078 v -0.006 -0.002 -0.001 c 0.0421,0.0483 0.0859,0.0964 0.12764,0.14469 0.0483,0.0558 0.0968,0.11142 0.14469,0.16744 0.63975,0.74977 1.23438,1.50812 1.79886,2.28926 0.0696,0.0968 0.14061,0.19331 0.20877,0.29042 0.17575,0.2485 0.35014,0.498 0.52038,0.75241 0.004,0.006 0.008,0.0128 0.0124,0.0191 0.58966,0.88239 1.14852,1.80385 1.69395,2.78795 0.20253,0.36541 0.501,0.90345 0.66301,1.19579 0.0336,0.0607 0.0606,0.10045 0.093,0.15761 0.0234,0.0419 0.0804,0.14557 0.0951,0.17157 0.0209,0.037 0.0402,0.0625 0.061,0.0982 0.002,0.004 0.01,0.018 0.0119,0.0217 0.0264,0.0453 0.0482,0.0746 0.0739,0.1173 5.4e-4,8.8e-4 0.001,0.002 0.002,0.003 0.0495,0.0806 0.10175,0.16853 0.14883,0.24029 0.0346,0.0526 0.0704,0.11174 0.10439,0.1602 0.0662,0.0967 0.12922,0.17194 0.19172,0.25063 0.0341,0.0428 0.0692,0.0902 0.10232,0.12816 0.0933,0.1061 0.18569,0.20194 0.27595,0.27181 0.0213,0.0171 0.0425,0.0319 0.0636,0.047 0.0211,0.0145 0.0424,0.0291 0.0636,0.0419 0.04,0.0252 0.0801,0.0474 0.11989,0.0661 0.0147,0.007 0.0293,0.0129 0.0439,0.0191 0.0217,0.009 0.0434,0.0212 0.0651,0.0284 0.0103,0.003 0.025,0.004 0.0362,0.007 0.0103,0.003 0.0208,0.008 0.031,0.0109 0.0103,0.002 0.0269,0.001 0.0382,0.003 0.0688,0.0117 0.14205,0.018 0.21911,0.0171 0.009,-1.6e-4 0.0164,8.5e-4 0.0258,5.1e-4 0.0246,-7.5e-4 0.0463,-0.004 0.0703,-0.006 0.013,-0.001 0.0248,-0.002 0.0367,-0.004 0.0302,-0.003 0.0619,-0.005 0.0894,-0.0103 0.004,-9.5e-4 0.009,-0.004 0.0134,-0.005 0.0139,-0.003 0.0234,-0.008 0.0362,-0.0114 0.002,-7.2e-4 0.007,-2.9e-4 0.009,-0.001 0.002,-7.4e-4 0.005,-0.003 0.007,-0.004 0.0255,-0.008 0.0556,-0.0138 0.0749,-0.0238 0.0458,-0.0237 0.0937,-0.0576 0.14107,-0.0879 0.0139,-0.009 0.0262,-0.016 0.0403,-0.0253 0.0364,-0.0244 0.0709,-0.0479 0.10697,-0.0749 0.023,-0.017 0.0469,-0.0374 0.0698,-0.0558 0.0161,-0.013 0.0323,-0.0255 0.0481,-0.0387 0.01,-0.008 0.0197,-0.0153 0.0295,-0.0238 0.0473,-0.0409 0.0884,-0.0813 0.13074,-0.12351 0.009,-0.009 0.0167,-0.0139 0.0253,-0.0227 0.009,-0.01 0.0154,-0.0185 0.0243,-0.0279 0.0332,-0.0353 0.0633,-0.0685 0.091,-0.10284 0.0163,-0.0204 0.0298,-0.0413 0.0439,-0.0615 0.0211,-0.0297 0.0492,-0.0615 0.0641,-0.0889 0.0455,-0.0835 0.0585,-0.14097 0.0636,-0.22686 0.01,-0.0708 0.009,-0.14904 -0.003,-0.23461 -0.007,-0.11428 -0.0236,-0.2032 -0.0806,-0.37 -0.10914,-0.31914 -0.3225,-0.80472 -0.58808,-1.37563 -0.17907,-0.38781 -0.37816,-0.8048 -0.59738,-1.24333 -0.005,-0.0108 -0.008,-0.017 -0.0134,-0.0279 -0.0231,-0.0463 -0.0311,-0.0583 -0.0532,-0.10232 -0.14235,-0.28275 -0.28684,-0.56759 -0.43512,-0.84852 -0.05,-0.0947 -0.0821,-0.14675 -0.12557,-0.22738 -0.0912,-0.16756 -0.20424,-0.37886 -0.29249,-0.52813 -0.0121,-0.0204 -0.0296,-0.0494 -0.0419,-0.0698 -0.15631,-0.26094 -0.31932,-0.52076 -0.53485,-0.84594 -0.40833,-0.61606 -0.43023,-0.65462 -0.4129,-0.72089 5.3e-4,-0.002 -0.004,-0.007 -0.004,-0.009 0.004,-0.007 0.0124,-0.0159 0.0124,-0.0202 0,-0.005 -0.0221,-0.0271 -0.0305,-0.0388 -0.006,-0.009 -0.0195,-0.0255 -0.0289,-0.0372 -0.0123,-0.0137 -0.017,-0.0208 -0.0331,-0.0372 -0.0326,-0.0394 -0.0625,-0.076 -0.12402,-0.1416 -0.1214,-0.12948 -0.3974,-0.47848 -0.6134,-0.77566 -0.17966,-0.24718 -0.36294,-0.48265 -0.54519,-0.7214 -0.0137,-0.018 -0.027,-0.0363 -0.0408,-0.0543 -0.81423,-1.06269 -1.6775,-2.06771 -2.66754,-3.10834 -0.067,-0.0711 -0.12652,-0.13914 -0.19482,-0.21084 -0.0619,-0.065 -0.12462,-0.12398 -0.18655,-0.1881 -0.081,-0.0832 -0.15327,-0.16302 -0.23616,-0.24702 -0.13028,-0.132 -0.25362,-0.25078 -0.38034,-0.3762 v -0.0233 -0.002 -0.0109 -0.005 l -0.50126,-0.50798 c -0.27562,-0.27924 -0.50126,-0.52354 -0.50126,-0.54312 0,-8.4e-4 -0.012,-0.0107 -0.0124,-0.0119 v -0.0119 l -0.0827,-0.0672 c -0.002,-0.002 -0.007,-0.006 -0.009,-0.009 -0.009,-0.008 -0.0162,-0.0158 -0.0258,-0.0248 -0.16962,-0.16561 -0.62601,-0.54055 -1.22938,-1.02112 -0.36262,-0.2887 -0.74664,-0.58617 -1.14464,-0.88987 -0.17399,-0.133 -0.33996,-0.26969 -0.50539,-0.39326 -0.30094,-0.22479 -0.60835,-0.44531 -0.92036,-0.66197 -0.0182,-0.0128 -0.0448,-0.0331 -0.0625,-0.0455 -0.0589,-0.0411 -0.12718,-0.0814 -0.18707,-0.12247 -0.34995,-0.2384 -0.70706,-0.47109 -1.07022,-0.69918 -0.10037,-0.0627 -0.19653,-0.12523 -0.29869,-0.18759 -1.61749,-0.99345 -3.35802,-1.88661 -5.20846,-2.66599 -0.21012,-0.0885 -0.43286,-0.17016 -0.64958,-0.25528 -0.0584,-0.023 -0.11665,-0.0461 -0.17518,-0.0687 -0.27481,-0.10594 -0.55165,-0.20939 -0.83509,-0.30954 -0.17775,-0.0634 -0.35714,-0.12344 -0.5364,-0.18397 -0.19331,-0.0647 -0.38422,-0.13043 -0.58033,-0.19224 -0.80738,-0.25643 -1.62985,-0.48481 -2.46703,-0.68419 -0.28229,-0.0681 -0.56389,-0.12838 -0.84646,-0.18965 -0.083,-0.0177 -0.16532,-0.0366 -0.24856,-0.0538 -1.59328,-0.33414 -3.17432,-0.56302 -4.62039,-0.6444 -0.0834,-0.005 -0.38441,-0.004 -0.51987,-0.007 -0.35809,-0.0109 -0.776,-0.0175 -1.23352,-0.0186 -0.14021,-0.001 -0.27449,-0.003 -0.42633,-0.004 -0.11828,-2.3e-4 -0.1644,-0.003 -0.28318,-0.003 -0.0105,-1e-5 -0.0174,0 -0.0279,0 h -5.1e-4 c -0.0244,-2e-5 -0.0399,-5.2e-4 -0.0646,-5.2e-4 z"
       id="path3" /><path
       d="m 73.766557,194.44601 c -2.05902,0 -3.850979,1.08447 -4.852417,2.71198 h 1.131714 v 4.01784 c 0,0.40437 0.132356,0.60617 0.397391,0.60617 0.261303,0 0.391708,-0.2018 0.391708,-0.60617 v -4.01784 h 2.094446 v 3.96772 c 0,0.9229 -0.240894,1.70295 -0.722437,2.34042 -0.481542,0.63272 -1.071351,0.9493 -1.769401,0.9493 -0.795105,0 -1.435021,-0.36902 -1.920296,-1.10639 -0.0031,-0.005 -0.0052,-0.0107 -0.0083,-0.0155 0.860445,2.05301 2.885067,3.48816 5.25756,3.48816 h 0.260449 v -5.91281 c 0,-1.08941 0.223847,-1.97681 0.671794,-2.66186 0.257569,-0.39485 0.584099,-0.70895 0.979785,-0.94206 0.399419,-0.2331 0.808198,-0.34933 1.226282,-0.34933 0.832433,0 1.534166,0.35663 2.105297,1.07022 0.571132,0.71358 0.856796,1.58912 0.856796,2.62619 0,1.00854 -0.283712,1.87912 -0.851111,2.61173 -0.567399,0.73262 -1.239457,1.09864 -2.015898,1.09864 -0.126918,0 -0.313285,-0.0163 -0.559656,-0.0496 v -2.94039 c 0.171713,0.17602 0.343502,0.26407 0.515214,0.26407 0.216508,0 0.400923,-0.10188 0.553972,-0.30644 0.156781,-0.20456 0.235128,-0.44744 0.235128,-0.72812 0,-0.28068 -0.0803,-0.51861 -0.240813,-0.71365 -0.160514,-0.19981 -0.352735,-0.29973 -0.576709,-0.29973 -0.537535,0 -0.806152,0.47338 -0.806152,1.42007 v 5.81308 h 39.010537 v -5.91281 c 0,-1.08941 0.22385,-1.97681 0.6718,-2.66186 0.25757,-0.39485 0.58461,-0.70895 0.9803,-0.94206 0.39942,-0.2331 0.8082,-0.34933 1.22628,-0.34933 0.83243,0 1.53417,0.35663 2.1053,1.07022 0.57113,0.71358 0.85679,1.58912 0.85679,2.62619 0,1.00854 -0.28371,1.87912 -0.85111,2.61173 -0.5674,0.73262 -1.23945,1.09864 -2.01589,1.09864 -0.12692,0 -0.31381,-0.0163 -0.56018,-0.0496 v -2.94039 c 0.17172,0.17602 0.3435,0.26407 0.51522,0.26407 0.2165,0 0.40144,-0.10188 0.55449,-0.30644 0.15678,-0.20456 0.23512,-0.44744 0.23512,-0.72812 0,-0.28068 -0.0803,-0.51861 -0.24081,-0.71365 -0.16051,-0.19981 -0.35273,-0.29973 -0.57671,-0.29973 -0.53753,0 -0.80615,0.47338 -0.80615,1.42007 v 5.81308 h 16.65945 c 3.15785,0 5.70043,-2.54257 5.70043,-5.70042 v -0.93535 c 0,-0.19862 -0.0103,-0.3948 -0.03,-0.58807 v 0.41186 c -0.2949,0 -0.49831,0.0712 -0.6103,0.21394 -0.10825,0.13796 -0.17736,0.41397 -0.20722,0.82785 -0.097,1.37485 -0.51507,2.34534 -1.25419,2.91145 -0.39195,0.29495 -0.94818,0.44235 -1.66863,0.44235 h -0.29094 v -2.82566 h 0.0951 c 0.33596,0 0.5749,-0.088 0.71675,-0.26407 0.14558,-0.18078 0.22927,-0.49488 0.25167,-0.94206 0.0299,-0.72786 0.0824,-1.23933 0.15709,-1.53427 0.0784,-0.29495 0.23509,-0.58728 0.47026,-0.87747 0.37568,-0.46572 0.8909,-0.7081 1.5322,-0.74776 -0.96696,-1.58287 -2.68128,-2.64942 -4.66224,-2.71766 v 2.70164 h 0.94051 v 2.81895 h -0.94051 c 0,0.56611 0.0691,0.95588 0.20722,1.16996 0.14185,0.21407 0.39927,0.32142 0.77256,0.32142 v 2.80448 c -0.10825,0.005 -0.18855,0.007 -0.24081,0.007 -0.47408,0 -0.92177,-0.13997 -1.34359,-0.42065 -0.41808,-0.28067 -0.75437,-0.66156 -1.00821,-1.14204 -0.32102,-0.61369 -0.4811,-1.42687 -0.4811,-2.44017 v -5.83065 h -1.18701 c 0.12572,0.2121 0.19017,0.45211 0.19017,0.72141 0,0.37106 -0.0988,0.67526 -0.29662,0.91312 -0.19411,0.23786 -0.44425,0.35708 -0.75035,0.35708 -0.30609,0 -0.55818,-0.11922 -0.75602,-0.35708 -0.19411,-0.23786 -0.29146,-0.54206 -0.29146,-0.91312 0,-0.26935 0.0636,-0.50928 0.18707,-0.72141 h -5.28753 c 0.12572,0.2121 0.19017,0.45211 0.19017,0.72141 0,0.37106 -0.0988,0.67526 -0.29662,0.91312 -0.19412,0.23786 -0.44425,0.35708 -0.75035,0.35708 -0.30609,0 -0.55818,-0.11922 -0.75602,-0.35708 -0.19411,-0.23786 -0.29146,-0.54206 -0.29146,-0.91312 0,-0.26935 0.0636,-0.50928 0.18707,-0.72141 h -14.98048 v 5.91592 c 0,1.08941 -0.22385,1.97681 -0.67179,2.66185 -0.25757,0.39485 -0.58605,0.70896 -0.98547,0.94206 -0.39569,0.23311 -0.80252,0.34985 -1.2206,0.34985 -0.83243,0 -1.53417,-0.35715 -2.1053,-1.07073 -0.57113,-0.71359 -0.85679,-1.5886 -0.85679,-2.62568 0,-1.00378 0.28371,-1.87239 0.85111,-2.60501 0.5674,-0.73262 1.23945,-1.09864 2.01589,-1.09864 0.12319,0 0.30956,0.0144 0.55966,0.0429 v 2.93987 c -0.17171,-0.17126 -0.3435,-0.25683 -0.51521,-0.25683 -0.21651,0 -0.40288,0.1024 -0.55966,0.30696 -0.15305,0.1998 -0.22944,0.44217 -0.22944,0.7276 0,0.27592 0.0803,0.51385 0.24081,0.71365 0.16051,0.19505 0.35274,0.29249 0.57671,0.29249 0.53753,0 0.80615,-0.47337 0.80615,-1.42007 v -5.81618 H 93.243921 v 2.71198 h 0.940511 v 2.81895 h -0.940511 c 0,0.56611 0.06911,0.95588 0.207222,1.16996 0.14185,0.21407 0.399274,0.32142 0.772563,0.32142 v 2.80448 c -0.108254,0.005 -0.188552,0.007 -0.240812,0.007 -0.474077,0 -0.922288,-0.13997 -1.344104,-0.42065 -0.418083,-0.28067 -0.753854,-0.66156 -1.007691,-1.14204 -0.321028,-0.61369 -0.481624,-1.42687 -0.481624,-2.44017 v -5.83065 h -0.68833 v 2.66237 c -0.04853,-0.005 -0.08406,-0.007 -0.106453,-0.007 -0.265035,0 -0.470401,0.11179 -0.615984,0.33538 -0.141849,0.22359 -0.212906,0.54213 -0.212906,0.95601 v 0.24288 h 0.935343 v 2.79725 h -0.935343 v 2.73988 h -2.093929 v -6.04408 c 0,-0.68028 0.09149,-1.26049 0.274401,-1.74097 0.231439,-0.61369 0.582306,-1.11328 1.052649,-1.49862 0.241474,-0.1987 0.487886,-0.34542 0.738973,-0.44287 h -3.482474 c 0.125725,0.2121 0.190169,0.45211 0.190169,0.72141 0,0.37106 -0.0993,0.67526 -0.29714,0.91312 -0.19411,0.23786 -0.444245,0.35708 -0.750341,0.35708 -0.306097,0 -0.557667,-0.11922 -0.75551,-0.35708 -0.19411,-0.23786 -0.291455,-0.54206 -0.291455,-0.91312 0,-0.26935 0.06356,-0.50928 0.187069,-0.72141 h -1.419035 v 9.72654 H 80.78525 v -9.72654 z m 24.091036,2.45515 c 0.810036,0 1.489384,0.35219 2.038118,1.05627 0.552469,0.69931 0.828889,1.56245 0.828889,2.59002 0,0.10466 -0.008,0.27136 -0.0227,0.49971 h -3.17448 c -0.04853,-0.20456 -0.07286,-0.39253 -0.07286,-0.56379 0,-0.23786 0.03358,-0.47083 0.100769,-0.69918 h 1.064017 c -0.07466,-0.52806 -0.308262,-0.7922 -0.700215,-0.7922 -0.261302,0 -0.473957,0.14296 -0.638204,0.4284 -0.164247,0.28067 -0.246497,0.64226 -0.246497,1.08468 0,0.46146 0.07835,0.83491 0.235128,1.12035 0.160514,0.28543 0.369783,0.42788 0.627352,0.42788 0.209042,0 0.410504,-0.13305 0.604614,-0.39946 l 1.192692,1.82676 c -0.5562,0.5566 -1.173731,0.83509 -1.853117,0.83509 -0.828701,0 -1.525095,-0.35467 -2.088761,-1.0635 -0.563666,-0.70883 -0.845427,-1.58632 -0.845427,-2.63291 0,-1.04184 0.283713,-1.92232 0.851111,-2.64067 0.571132,-0.71834 1.270913,-1.07745 2.099614,-1.07745 z m 29.782677,0.007 c 0.16425,0 0.37742,0.0262 0.63872,0.0786 v 2.85409 c -0.14558,-0.10466 -0.27845,-0.15658 -0.39791,-0.15658 -0.38075,0 -0.57102,0.37098 -0.57102,1.11311 v 3.37499 h -2.09393 v -3.88865 c 0,-1.02757 0.21994,-1.84622 0.66042,-2.45515 0.44049,-0.61368 1.02834,-0.92036 1.76372,-0.92036 z m -43.534809,0.14987 h 2.094445 v 7.11429 h -2.094445 z m 37.784769,0 h 2.09393 v 7.11429 h -2.09393 z m 7.00474,0 h 2.09393 v 7.11429 h -2.09393 z m -14.95619,0.0997 h 0.63304 v 2.81172 c -0.2949,0 -0.49831,0.0712 -0.6103,0.21394 -0.10825,0.13796 -0.17736,0.41397 -0.20722,0.82785 -0.0971,1.37485 -0.51508,2.34534 -1.25419,2.91145 -0.39195,0.29495 -0.94818,0.44235 -1.66863,0.44235 h -0.29146 v -2.82566 h 0.0951 c 0.33596,0 0.5749,-0.088 0.71675,-0.26407 0.14558,-0.18078 0.22978,-0.49488 0.25218,-0.94206 0.0299,-0.72786 0.0819,-1.23933 0.15658,-1.53427 0.0784,-0.29495 0.2356,-0.58728 0.47077,-0.87747 0.41062,-0.50903 0.97948,-0.76378 1.70739,-0.76378 z"
       style="display:inline;opacity:0.752665;fill:#ffffff;stroke-width:0.001"
       id="path159" /></g></svg>
