<?xml version="1.0" encoding="UTF-8" standalone="no"?>
<!-- Created with Inkscape (http://www.inkscape.org/) -->

<svg
   width="210mm"
   height="297mm"
   viewBox="0 0 210 297"
   version="1.1"
   id="svg1"
   xml:space="preserve"
   inkscape:version="1.3.2 (091e20e, 2023-11-25, custom)"
   sodipodi:docname="LumonaORG LOGO.svg"
   xmlns:inkscape="http://www.inkscape.org/namespaces/inkscape"
   xmlns:sodipodi="http://sodipodi.sourceforge.net/DTD/sodipodi-0.dtd"
   xmlns="http://www.w3.org/2000/svg"
   xmlns:svg="http://www.w3.org/2000/svg"
   xmlns:rdf="http://www.w3.org/1999/02/22-rdf-syntax-ns#"
   xmlns:cc="http://creativecommons.org/ns#"
   xmlns:dc="http://purl.org/dc/elements/1.1/"><sodipodi:namedview
     id="base"
     pagecolor="#ffffff"
     bordercolor="#000000"
     borderopacity="0.3"
     inkscape:pageopacity="0.0"
     inkscape:pageshadow="2"
     inkscape:zoom="0.7"
     inkscape:cx="212.14286"
     inkscape:cy="587.85714"
     inkscape:document-units="mm"
     inkscape:showpageshadow="2"
     inkscape:pagecheckerboard="0"
     inkscape:deskcolor="#d1d1d1"
     inkscape:window-width="1920"
     inkscape:window-height="1051"
     inkscape:window-x="1341"
     inkscape:window-y="-9"
     inkscape:window-maximized="1"
     inkscape:current-layer="svg1" /><defs
     id="defs1" /><metadata
     id="metadata1"><rdf:RDF><cc:Work
         rdf:about=""><dc:format>image/svg+xml</dc:format><dc:type
           rdf:resource="http://purl.org/dc/dcmitype/StillImage" /></cc:Work></rdf:RDF></metadata><g
     id="g50"
     style="display:inline;fill:#000000"
     transform="matrix(1.1153935,0,0,1.1220469,-14.346209,-9.3585217)"><g
       id="g51"
       style="display:inline;fill:#000000"
       transform="matrix(1.5155588,0,0,0.83895142,-46.649178,24.487349)"
       inkscape:label="g51"><path
         d="m 74.795924,206.59122 v 12.28726 c 0,0.97521 0.0521,1.62719 0.155824,1.95568 0.10718,0.31823 0.316222,0.47738 0.62739,0.47738 h 0.109112 v 6.09743 h -0.560219 c -0.767547,0 -1.365819,-0.66225 -1.79454,-1.98649 -0.392993,-1.22329 -0.597028,-2.89917 -0.629776,-4.985 4.27e-4,0.13161 -1.16e-4,0.21194 3.41e-4,0.34433 0.04494,13.04035 0.05381,13.38212 0.365863,13.63499 0.274996,0.22291 3.823065,0.25279 25.203005,0.21189 11.604836,-0.0222 18.760006,-0.067 22.310536,-0.13305 -0.21418,-0.0741 -0.46391,-0.24832 -0.75083,-0.52726 v -5.23509 c 0.25239,0.41061 0.50822,0.61597 0.76753,0.61597 0.3492,0 0.61897,-0.34397 0.80913,-1.03174 0.19016,-0.67751 0.28506,-1.65293 0.28506,-2.92583 v -5.77406 c 0,-1.61166 -0.21967,-2.41766 -0.65876,-2.41766 -0.1867,0 -0.35095,0.21562 -0.49271,0.64677 -0.1383,0.42088 -0.20731,0.90858 -0.20731,1.46291 0,0.58512 0.0657,1.07284 0.19708,1.46292 0.13484,0.39009 0.30075,0.58516 0.49782,0.58516 0.13138,0 0.25781,-0.0924 0.37882,-0.27718 v 5.28128 c -0.28005,0.30797 -0.54817,0.46197 -0.80401,0.46197 -0.6258,0 -1.15636,-0.70333 -1.592,-2.10968 -0.43218,-1.40636 -0.64853,-3.12554 -0.64853,-5.15808 0,-2.19679 0.26114,-4.05008 0.78321,-5.55908 0.52207,-1.50901 1.16347,-2.26306 1.92411,-2.26306 0.40452,0 0.79175,0.24129 1.16169,0.72376 0.36995,0.48247 0.66028,1.12871 0.87119,1.93967 0.2114,0.80614 0.35171,1.8574 0.43644,3.09892 -0.003,-1.14043 -0.001,-2.10396 -0.007,-3.34161 l -0.0348,-7.56342 H 98.168586 92.031417 c 0.08985,0.41538 0.138094,0.8746 0.138094,1.3853 0,0.8007 -0.09158,1.45782 -0.274824,1.97109 -0.179787,0.51327 -0.411395,0.76995 -0.694903,0.76995 -0.283508,0 -0.516774,-0.25668 -0.700017,-0.76995 -0.179786,-0.51327 -0.26971,-1.17039 -0.26971,-1.97109 0,-0.51077 0.04776,-0.96988 0.136049,-1.3853 z m 20.817412,5.14268 c 0.739884,0 1.332849,0.79512 1.778855,2.38625 0.349197,1.24211 0.523734,2.97218 0.523734,5.1895 v 8.09932 h -1.939794 v -8.66909 c 0,-0.88281 -0.122436,-1.32432 -0.36791,-1.32432 -0.242022,0 -0.363136,0.44151 -0.363136,1.32432 v 8.66909 h -1.939794 v -8.56129 c 0,-2.00175 0.222982,-3.68563 0.668989,-5.05091 0.446006,-1.37556 0.992517,-2.06287 1.639056,-2.06287 z m 16.149494,0 c 0.73297,0 1.36044,0.78485 1.88251,2.35545 0.52553,1.56034 0.78833,3.43416 0.78833,5.62068 0,2.21731 -0.26612,4.10592 -0.79856,5.66626 -0.52898,1.56033 -1.16873,2.34066 -1.91899,2.34066 -0.75026,0 -1.39167,-0.78033 -1.92411,-2.34066 -0.53245,-1.5706 -0.79856,-3.45921 -0.79856,-5.66626 0,-2.24812 0.26611,-4.13734 0.79856,-5.66688 0.53244,-1.5398 1.18944,-2.30925 1.97082,-2.30925 z m 5.72562,0 c 0.15212,0 0.34923,0.0565 0.59124,0.16939 v 6.15903 c -0.13483,-0.22578 -0.25761,-0.33878 -0.36825,-0.33878 -0.35265,0 -0.52885,0.80088 -0.52885,2.40226 v 7.28317 h -1.93979 v -8.3919 c 0,-2.21732 0.20406,-3.98333 0.61204,-5.2973 0.40798,-1.32422 0.9525,-1.98587 1.63361,-1.98587 z m -33.486943,0.0154 c 0.573932,0 1.08891,0.71811 1.545289,2.15526 0.508241,-1.43715 1.01659,-2.15526 1.52483,-2.15526 0.646538,0 1.165171,0.69757 1.555859,2.09367 0.307711,1.08811 0.461677,2.67445 0.461677,4.75832 v 8.80768 h -1.939794 v -8.28411 c 0,-0.63645 -0.02222,-1.07795 -0.06717,-1.32432 -0.04495,-0.24638 -0.126243,-0.36958 -0.243795,-0.36958 -0.217818,0 -0.326993,0.56985 -0.326993,1.7093 v 8.26871 h -1.939453 v -8.28411 c 0,-0.63645 -0.02422,-1.07795 -0.07263,-1.32432 -0.04495,-0.24638 -0.126244,-0.36958 -0.243796,-0.36958 -0.21436,0 -0.321537,0.56985 -0.321537,1.7093 v 8.26871 H 81.99454 v -9.45444 c 0,-1.72458 0.195104,-3.1877 0.585792,-4.38875 0.390688,-1.2113 0.864531,-1.81648 1.421174,-1.81648 z m 17.456443,0 c 0.83669,0 1.49536,0.72838 1.97594,2.18606 0.48404,1.44741 0.72627,3.42904 0.72627,5.94406 v 7.52955 h -1.93979 v -7.11377 c 0,-0.81097 -0.0674,-1.45781 -0.2022,-1.94029 -0.13138,-0.48247 -0.30957,-0.72376 -0.53431,-0.72376 -0.20399,0 -0.38017,0.22075 -0.52884,0.66216 -0.14868,0.44141 -0.223,0.96505 -0.223,1.57071 0,0.63645 0.0674,1.16009 0.2022,1.57071 0.13483,0.41061 0.30606,0.61596 0.5135,0.61596 0.16942,0 0.32669,-0.13347 0.47191,-0.40037 v 5.95884 c -0.15905,0.0822 -0.30438,0.12319 -0.43577,0.12319 -0.77791,0 -1.42595,-0.75981 -1.944563,-2.27907 -0.518613,-1.51927 -0.7781,-3.42328 -0.7781,-5.71245 0,-2.22758 0.261144,-4.1168 0.783214,-5.66688 0.525519,-1.55006 1.163279,-2.32465 1.913539,-2.32465 z m -11.233007,0.30799 h 1.939453 v 15.35168 h -1.939453 z m -13.971702,0.21558 h 1.939795 v 8.66909 c 0,0.87256 0.122774,1.30892 0.36825,1.30892 0.242019,0 0.362795,-0.43636 0.362795,-1.30892 v -8.66909 h 1.939795 v 8.56129 c 0,1.99149 -0.222982,3.67474 -0.668989,5.0503 -0.446008,1.36529 -0.992178,2.04808 -1.638715,2.04808 -0.73643,0 -1.329391,-0.79574 -1.778855,-2.38686 -0.3492,-1.24211 -0.524076,-2.96644 -0.524076,-5.17349 z m 35.457759,5.14269 c -0.20745,0 -0.38363,0.22588 -0.52885,0.67756 -0.14521,0.44141 -0.21788,0.9856 -0.21788,1.63231 0,0.63646 0.0727,1.18063 0.21788,1.6323 0.14867,0.45167 0.32486,0.67756 0.52885,0.67756 0.20745,0 0.38398,-0.22589 0.52919,-0.67756 0.14867,-0.45167 0.223,-0.99584 0.223,-1.6323 0,-0.64671 -0.0727,-1.1909 -0.21788,-1.63231 -0.14522,-0.45168 -0.3234,-0.67756 -0.53431,-0.67756 z m -4.984,3.09522 c 0.33883,0 0.62951,0.36449 0.87153,1.09334 0.24547,0.72884 0.36825,1.59583 0.36825,2.60183 0,1.00601 -0.12112,1.86334 -0.36314,2.57166 -0.24202,0.69804 -0.53435,1.04714 -0.87664,1.04714 -0.35612,0 -0.64976,-0.33883 -0.88141,-1.01635 -0.22819,-0.68778 -0.34234,-1.56052 -0.34234,-2.61785 0,-1.02654 0.11912,-1.89352 0.35768,-2.60183 0.23857,-0.71857 0.52724,-1.07794 0.86607,-1.07794 z m 16.79803,7.62934 c -0.12274,1.47994 -0.34902,2.75569 -0.67922,3.82637 -0.45119,1.48156 -1.02188,2.31995 -1.71066,2.52114 1.31847,-0.0279 2.15775,-0.0584 2.19007,-0.0942 0.0989,-0.10959 0.1654,-2.39869 0.19981,-6.25327 z"
         style="display:inline;fill:#000000"
         id="path53" /><path
         style="fill:#000000"
         d="m 123.50803,199.34332 -25.378814,0.046 -25.379329,0.046 -0.04599,2.42053 c -0.02524,1.33622 0.0233,2.51339 0.10852,2.62723 l 5.17e-4,-5.2e-4 c 0.114507,0.15283 6.669947,0.1937 25.379332,0.1571 l 25.225334,-0.0496 0.0455,-2.6231 z"
         id="path37" /><path
         style="fill:#000000"
         d="m 86.382646,189.19975 -0.401526,0.44442 c -0.25287,0.2803 -0.401009,0.65161 -0.401009,1.00459 0,0.35297 0.148139,0.72428 0.401009,1.00459 l 0.401526,0.44493 h 11.83494 c 11.725444,0 11.839424,-0.004 12.265914,-0.37568 0.57844,-0.50429 0.59116,-1.45505 0.0295,-2.07843 l -0.40101,-0.44442 H 98.247076 Z"
         id="path36" /><path
         style="fill:#000000"
         d="m 104.47457,178.14875 -1.19011,1.40405 c -0.65435,0.7722 -1.19069,1.50584 -1.19269,1.63039 -0.003,0.17745 1.39328,0.22634 6.44457,0.22634 h 6.44767 l 1.6154,2.58175 c 0.8883,1.41987 3.70291,5.92418 6.25492,10.00921 2.55183,4.08522 5.32808,8.52817 6.16861,9.8733 1.67525,2.681 2.0772,3.22219 2.56729,3.45716 0.74559,0.35746 1.92574,-0.23246 2.34042,-1.16996 0.28839,-0.65196 0.12133,-1.40001 -0.52245,-2.33939 -0.28758,-0.41963 -1.39855,-2.14879 -2.4691,-3.84266 -1.07054,-1.69387 -3.70863,-5.85149 -5.86165,-9.23923 -2.15322,-3.38775 -4.83166,-7.60653 -5.95261,-9.37514 l -2.03812,-3.21582 h -6.30608 z"
         id="path35" /><path
         style="fill:#000000"
         d="m 79.262667,178.14875 -0.331762,0.40772 c -0.182409,0.22419 -1.457467,2.20095 -2.833936,4.39302 -1.376469,2.19207 -3.619167,5.73859 -4.983158,7.88065 -4.259686,6.69009 -8.520059,13.47945 -8.717298,13.89218 -0.438647,0.91792 -0.01599,2.32807 0.753959,2.51612 0.245576,0.06 0.519892,0.13575 0.609782,0.16795 0.231592,0.0831 0.756363,-0.0856 1.174089,-0.37723 0.196212,-0.13699 1.225936,-1.62928 2.288232,-3.31556 4.313074,-6.84729 10.409476,-16.57717 12.527918,-19.99413 l 1.432471,-2.30994 h 6.611482 c 3.636402,0 6.612,-0.041 6.612,-0.0909 0,-0.0502 -0.523927,-0.78379 -1.163753,-1.63039 l -1.163237,-1.53951 h -6.408394 z"
         id="path34" /><path
         style="fill:#000000"
         d="m 104.57482,152.50638 c -1.86087,0.0817 -3.6295,0.94564 -4.779554,2.47737 -0.44736,0.59583 -0.92559,1.32306 -1.06247,1.61644 -0.13687,0.29337 -0.35495,0.53382 -0.48472,0.53382 -0.12978,0 -0.48426,-0.42826 -0.78755,-0.95136 -1.57347,-2.71389 -4.194891,-4.0404 -7.087426,-3.58635 -2.294574,0.36019 -4.312068,2.06353 -5.322672,4.4943 -0.421685,1.01425 -0.5199,1.50846 -0.58136,2.92334 -0.11865,2.73107 0.409508,4.59234 2.085144,7.34477 1.997645,3.28135 6.367915,8.15227 10.536304,11.7445 1.15205,0.99279 1.0702,1.01735 3.199814,-0.95756 5.33615,-4.94915 8.40306,-8.60118 10.29808,-12.2623 0.87209,-1.68495 1.09366,-2.37811 1.31671,-4.12172 0.44197,-3.45469 -1.30018,-7.17579 -3.9951,-8.53333 -1.06913,-0.53838 -2.21868,-0.77076 -3.3352,-0.72192 z"
         id="path33" /></g><path
       id="path32"
       style="fill:#000000"
       d="m 48.085954,98.565043 -1.986959,1.814357 c -1.092757,0.99771 -2.487462,2.27358 -3.099552,2.83549 -0.612109,0.56192 -1.310985,1.1853 -1.552877,1.38544 -0.241891,0.20014 -0.660491,0.59324 -0.930176,0.87334 -0.767975,0.79745 -0.954528,0.96249 -1.350822,1.19165 -0.144334,0.0835 -0.514288,0.42396 -0.843876,0.72347 -0.121533,0.14877 -0.317592,0.28558 -0.51108,0.42168 -0.1086,0.15656 -0.244977,0.31589 -0.413928,0.47543 -0.08856,0.0836 -0.176154,0.16646 -0.266134,0.24856 -0.112008,0.0899 -0.06745,0.0549 -0.132808,0.10697 -0.137951,0.11003 -0.273842,0.20098 -0.406694,0.27595 -0.05645,0.16342 -0.253148,0.45891 -0.569474,0.77567 -0.359579,0.36007 -0.653707,0.76257 -0.653707,0.89452 0,0.77207 5.105092,6.78423 9.025806,10.62932 4.947987,4.85256 7.478116,6.33532 14.291117,8.37468 5.346634,1.60057 6.502302,2.44521 15.337565,11.20862 1.732196,1.71815 2.749948,2.55999 3.270085,2.70578 1.575846,0.44172 2.379266,-0.40719 2.155424,-2.2779 -0.13778,-1.15146 -1.615497,-4.19331 -2.884062,-5.93659 -1.317448,-1.81025 -4.64677,-5.41934 -8.016048,-8.68939 -2.552954,-2.47776 -3.16565,-3.22212 -3.800802,-4.6178 -0.516683,-1.13557 -1.804912,-5.84393 -1.689819,-6.17637 0.04739,-0.13687 0.276988,-0.24857 0.510046,-0.24857 0.378804,0 0.511002,0.20687 1.245919,1.94769 0.452205,1.07112 1.036187,2.44661 1.297595,3.05666 0.272144,0.63506 0.790035,1.43047 1.211296,1.86087 l 0.735872,0.75137 0.848011,-0.7431 c 1.726665,-1.51284 3.394074,-2.12043 6.261116,-2.28152 3.643478,-0.20473 6.595133,0.97052 10.429338,4.15169 2.677965,2.22166 5.236284,5.10656 8.390185,9.46299 2.870063,3.96417 3.628386,4.82496 4.549593,5.16195 0.725902,0.26554 1.640766,0.13667 2.067056,-0.29093 0.39826,-0.39968 0.3994,-1.54909 10e-4,-2.51561 -0.45641,-1.10891 -2.935336,-5.574 -5.330946,-9.602 -2.094296,-3.52138 -2.269672,-3.75575 -6.223909,-8.33334 -6.802479,-7.87499 -8.01294,-9.16384 -9.305892,-9.90741 -1.928154,-1.10888 -3.343984,-1.46408 -7.420219,-1.8619 -3.226379,-0.31487 -10.644765,-1.39561 -13.173873,-1.91926 -2.671001,-0.55304 -4.744581,-1.21069 -6.21099,-1.96991 -1.305197,-0.67574 -3.507802,-2.39243 -4.387329,-3.419428 z m 26.821618,23.933937 c -0.172289,0.004 -0.385726,0.0485 -0.709517,0.12299 -0.500811,0.11525 -0.911055,0.25023 -0.911055,0.29973 0,0.0495 0.342124,0.5531 0.76016,1.11931 0.90148,1.22103 1.300847,2.16709 2.084627,4.93923 0.674521,2.3857 1.029184,3.10743 1.771468,3.60908 0.29298,0.19799 0.740406,0.36033 0.994772,0.3607 l 0.462504,0.001 -0.110071,-1.22318 c -0.170627,-1.89108 -0.684146,-4.33216 -1.146183,-5.45083 -0.560037,-1.35589 -1.582051,-2.82769 -2.36058,-3.39876 -0.301078,-0.22085 -0.471683,-0.33476 -0.674894,-0.36846 -0.0508,-0.008 -0.103801,-0.012 -0.161231,-0.0108 z m 3.405994,0.30696 c -0.541143,0 1.115606,2.11033 2.427759,3.09232 1.296799,0.97051 2.179194,2.00331 3.284554,3.84628 0.979852,1.63352 1.505873,3.06092 2.394686,6.49417 1.03451,3.99627 1.102511,4.11471 2.891296,5.03174 1.238075,0.6347 1.300696,0.64769 1.300696,0.27078 0,-1.72811 -3.178693,-11.23761 -4.412134,-13.19919 -0.508338,-0.80853 -1.674961,-2.08214 -2.710945,-2.96003 -1.426932,-1.20917 -4.173413,-2.57607 -5.175912,-2.57607 z m -6.916374,0.7245 c -0.337138,0 -1.10679,0.45212 -1.371492,0.80564 -0.185411,0.24763 0.0026,0.52594 1.400948,2.07274 0.888436,0.98277 1.872851,1.96023 2.187463,2.17196 0.557479,0.37515 0.573181,0.37662 0.622701,0.0346 0.130114,-0.89769 -2.208138,-5.08497 -2.83962,-5.08497 z m 9.003068,4.46433 c -0.05283,0.01 -0.06771,0.0872 -0.03514,0.24598 0.05112,0.2491 0.172698,1.14591 0.270268,1.99264 0.527502,4.57874 1.322245,6.58606 2.966227,7.49412 1.011015,0.55843 1.453723,0.60716 1.453142,0.1602 -8.12e-4,-0.62414 -0.815258,-3.67254 -1.293461,-4.84157 -0.76582,-1.87207 -2.991218,-5.11947 -3.361036,-5.05137 z m 8.994283,3.18792 c -0.01003,-0.003 -0.01716,-0.003 -0.0217,0.002 -0.03532,0.0391 0.26385,0.97618 0.665076,2.08256 0.401226,1.10638 1.068952,3.26091 1.48363,4.78782 1.265684,4.66008 1.52971,5.2303 2.577621,5.56658 0.835687,0.26818 1.080459,0.22542 1.523938,-0.26613 0.339059,-0.37582 0.40014,-0.57505 0.31781,-1.04128 -0.144748,-0.81971 -1.259387,-3.34268 -2.154391,-4.87619 -1.198596,-2.05375 -4.080919,-6.14795 -4.39198,-6.25543 z" /><path
       id="path31"
       style="fill:#000000"
       d="m 158.23375,97.467952 c -0.1945,-0.02651 -0.31057,0.06343 -0.41083,0.262 -0.23086,0.45763 -2.29392,2.384548 -3.62975,3.390488 -2.65557,1.99977 -5.52815,2.93933 -12.2592,4.00958 -3.44292,0.54747 -9.43706,1.3472 -10.95075,1.46089 -2.42735,0.18232 -3.84761,0.56055 -5.53455,1.47329 -1.72308,0.9326 -1.77682,0.98745 -9.74617,10.03143 -4.62691,5.2508 -4.62279,5.24498 -9.07542,13.13409 -2.44276,4.32819 -2.93884,5.38758 -2.93884,6.27351 0,1.47592 1.23085,2.03156 2.7249,1.2299 0.89092,-0.47804 2.08022,-1.9191 4.81935,-5.83788 2.68191,-3.83738 4.97512,-6.41636 7.69927,-8.65994 2.53424,-2.08716 3.83072,-2.88229 5.75882,-3.53053 1.30264,-0.43796 1.7424,-0.49585 3.84111,-0.50385 1.7939,-0.007 2.62495,0.0696 3.4184,0.31419 1.25289,0.38635 2.96157,1.31678 3.8318,2.0867 0.69963,0.61899 0.87681,0.58808 1.5906,-0.27854 0.72656,-0.88212 1.06361,-1.53286 1.95647,-3.77496 0.47615,-1.19567 0.97157,-2.35705 1.10071,-2.58124 0.26276,-0.45614 0.97343,-0.55497 1.11208,-0.15451 0.11072,0.31982 -1.31108,5.33926 -1.84433,6.51123 -0.54127,1.18962 -1.36331,2.14406 -4.05609,4.70772 -2.78734,2.65409 -6.72398,7.00655 -7.89357,8.72764 -0.47398,0.69727 -1.20824,2.03424 -1.63194,2.97087 -0.69612,1.53888 -0.77059,1.82403 -0.77102,2.95951 -4.3e-4,1.11989 0.0437,1.29643 0.40566,1.62161 0.30585,0.27499 0.56041,0.34172 1.03095,0.27182 1.21214,-0.18021 2.2429,-1.05725 7.15512,-6.08645 5.09049,-5.21212 7.31269,-6.70115 11.9202,-7.98815 2.78532,-0.77801 5.3727,-1.72119 6.98614,-2.54661 2.99215,-1.53084 6.1642,-4.24039 10.22728,-8.73693 2.5613,-2.83466 6.1241,-7.42113 6.5288,-8.40414 0.12661,-0.30755 0.0798,-0.54646 -0.21342,-1.08676 -1.21245,-2.23391 -7.91853,-9.304789 -10.26914,-10.827761 -0.41487,-0.268775 -0.68814,-0.411708 -0.88264,-0.438217 z m -28.51867,25.156608 c -0.70117,0 -0.81892,0.072 -1.61489,0.98288 -1.00507,1.15016 -1.68667,2.55885 -2.15336,4.45193 -0.34285,1.39072 -0.68419,3.59981 -0.68419,4.42815 0,0.38502 0.0762,0.46306 0.44958,0.4625 0.61902,-9.3e-4 1.39603,-0.56399 1.81488,-1.31516 0.19275,-0.34568 0.57708,-1.47478 0.85421,-2.50941 0.56868,-2.12312 1.52048,-4.28177 2.3766,-5.39037 l 0.57671,-0.74672 -0.4315,-0.1819 c -0.23731,-0.10003 -0.77198,-0.1819 -1.18804,-0.1819 z m -2.94969,0.12712 -0.71055,0.10904 c -1.26522,0.19373 -2.45825,0.7256 -3.92276,1.74976 -2.44626,1.71073 -3.66848,3.24419 -4.65656,5.84099 -0.8146,2.14085 -3.32542,10.54734 -3.32642,11.13885 -6.1e-4,0.26497 1.06642,-0.11225 2.03761,-0.72037 0.94927,-0.59419 1.25575,-1.23274 2.02985,-4.22713 0.836,-3.23362 1.42889,-4.92538 2.31613,-6.60941 0.8471,-1.60765 2.38262,-3.42746 3.56309,-4.22404 0.56488,-0.38092 1.26036,-1.09366 1.79576,-1.83968 z m 6.39651,0.81959 c -0.20824,0.014 -0.39462,0.23794 -0.91054,0.87488 -0.80126,0.9892 -1.7826,3.00972 -1.99678,4.11138 -0.0709,0.36458 -0.0506,0.58911 0.0538,0.58911 0.29703,0 2.04009,-1.71675 3.19463,-3.14658 1.07408,-1.33019 1.10958,-1.40372 0.84181,-1.73168 -0.15381,-0.18838 -0.50795,-0.44754 -0.78703,-0.57567 -0.12483,-0.0573 -0.22011,-0.0993 -0.30437,-0.11524 -0.0317,-0.006 -0.0617,-0.008 -0.0915,-0.006 z m -8.95088,4.35787 c -0.13369,0.0439 -1.38376,1.75921 -2.01641,2.77348 -1.03117,1.65298 -2.48874,5.79371 -2.48874,7.06933 0,0.54912 0.22449,0.54333 1.26194,-0.0289 1.65405,-0.91359 2.35534,-2.53866 2.91662,-6.75772 0.21853,-1.64271 0.36979,-3.01761 0.33589,-3.05511 -0.002,-0.002 -0.005,-0.002 -0.009,-0.001 z m -8.48733,2.54197 c -0.26487,-0.0252 -2.49853,3.13079 -4.26951,6.10298 -1.29227,2.16891 -2.54711,4.90971 -2.65462,5.7981 -0.0644,0.5318 -0.007,0.76592 0.26303,1.06505 0.44265,0.49069 0.91396,0.48453 1.82211,-0.0243 0.98656,-0.55243 1.31475,-1.17212 2.10892,-3.98218 0.55462,-1.9626 2.18273,-7.20436 2.71611,-8.74417 0.0496,-0.14327 0.0518,-0.21189 0.014,-0.21549 z" /></g></svg>
